<svg width="18" height="12" viewBox="0 0 18 12" fill="none" xmlns="http://www.w3.org/2000/svg">
<path fill-rule="evenodd" clip-rule="evenodd" d="M10.1653 5.99361L10.1638 5.63951C10.1516 4.23503 10.0669 2.98195 9.92092 2.18784C9.92092 2.17352 9.76165 1.38593 9.6602 1.12377C9.50093 0.744845 9.21293 0.423199 8.85184 0.219417C8.56276 0.0740164 8.25949 0.000214475 7.94204 0.000214502C7.69249 0.0117807 7.28095 0.137355 6.98723 0.242636L6.74314 0.33618C5.12644 0.978369 2.03593 3.07677 0.852306 4.36005L0.765045 4.44975L0.375585 4.87005C0.130134 5.1917 0.000316059 5.58494 0.000316096 6.00793C0.000316129 6.38685 0.115951 6.76577 0.347221 7.072C0.416458 7.17121 0.52798 7.29849 0.627245 7.40603L1.00631 7.80283C2.31077 9.1245 5.13516 10.9784 6.59914 11.5927C6.59914 11.6059 7.50895 11.9859 7.94204 12.0002L7.99986 12.0002C8.66421 12.0002 9.28493 11.6213 9.60238 11.0088C9.68911 10.8414 9.77229 10.5134 9.83556 10.2254L9.94929 9.68151C10.0791 8.8069 10.1653 7.46524 10.1653 5.99361ZM16.4967 7.51826C17.3269 7.51826 18 6.83862 18 6.00036C18 5.1621 17.3269 4.48246 16.4967 4.48246L12.7975 4.80961C12.1463 4.80961 11.6183 5.34165 11.6183 6.00036C11.6183 6.65797 12.1463 7.19111 12.7975 7.19111L16.4967 7.51826Z" fill="#298E32"/>
</svg>
