<svg width="20" height="20" viewBox="0 0 20 20" fill="none" xmlns="http://www.w3.org/2000/svg">
<circle cx="10" cy="10" r="10" fill="#E37729" fill-opacity="0.08"/>
<path d="M10.0452 14.263L11.6053 12.7061L10.0446 11.1492L9.63817 11.5556L10.5346 12.452C10.0325 12.4542 9.58653 12.3952 9.19678 12.2751C8.8066 12.1541 8.49376 11.9763 8.25826 11.7417C8.01758 11.5005 7.83632 11.227 7.71447 10.9211C7.59261 10.6152 7.53169 10.3095 7.53169 10.004C7.53169 9.82033 7.552 9.63669 7.59262 9.45304C7.63323 9.2694 7.69243 9.09527 7.77021 8.93064L7.33141 8.54175C7.2061 8.77033 7.11255 9.00712 7.05076 9.25212C6.9894 9.49712 6.95873 9.74644 6.95873 10.0001C6.95873 10.3851 7.03348 10.7653 7.18299 11.1408C7.33249 11.5163 7.55351 11.8518 7.84604 12.1474C8.13857 12.4442 8.52292 12.6646 8.9991 12.8085C9.47527 12.9528 9.96419 13.0263 10.4659 13.0289L9.63817 13.8566L10.0452 14.263ZM12.6812 11.4584C12.8065 11.2298 12.8999 10.993 12.9612 10.748C13.023 10.503 13.0539 10.2537 13.0539 10.0001C13.0539 9.61638 12.9796 9.23505 12.8309 8.8561C12.6823 8.47715 12.4598 8.14141 12.1634 7.84888C11.8751 7.55203 11.4917 7.33209 11.0129 7.18906C10.5337 7.04647 10.0448 6.97517 9.54613 6.97517L10.3738 6.1436L9.96743 5.73721L8.40669 7.29406L9.96743 8.85091L10.3738 8.44453L9.47354 7.5449C9.97305 7.5449 10.4198 7.60561 10.8139 7.72703C11.2076 7.84888 11.5219 8.02777 11.757 8.26369C11.9925 8.49919 12.1718 8.77033 12.2949 9.07712C12.4185 9.38348 12.4803 9.68983 12.4803 9.99619C12.4803 10.1798 12.4602 10.3635 12.42 10.5471C12.3798 10.7308 12.3206 10.9049 12.2424 11.0695L12.6812 11.4584ZM10.0018 15.8334C9.19549 15.8334 8.43715 15.6805 7.72678 15.3745C7.01684 15.0682 6.39916 14.6525 5.87373 14.1275C5.34829 13.6029 4.9324 12.9859 4.62604 12.2764C4.31968 11.5669 4.1665 10.8088 4.1665 10.002C4.1665 9.19573 4.31947 8.4374 4.62539 7.72703C4.93175 7.01709 5.34743 6.3994 5.87243 5.87397C6.397 5.34854 7.01403 4.93264 7.72354 4.62629C8.43305 4.31993 9.19116 4.16675 9.99789 4.16675C10.8042 4.16675 11.5625 4.31971 12.2729 4.62564C12.9828 4.93199 13.6005 5.34767 14.1259 5.87267C14.6514 6.39724 15.0673 7.01428 15.3736 7.72378C15.68 8.43329 15.8332 9.19141 15.8332 9.99814C15.8332 10.8044 15.6802 11.5628 15.3743 12.2731C15.0679 12.9831 14.6522 13.6008 14.1272 14.1262C13.6027 14.6516 12.9856 15.0675 12.2761 15.3739C11.5666 15.6802 10.8085 15.8334 10.0018 15.8334ZM9.99984 15.1853C11.4474 15.1853 12.6734 14.683 13.6781 13.6783C14.6827 12.6737 15.185 11.4476 15.185 10.0001C15.185 8.55255 14.6827 7.32647 13.6781 6.32184C12.6734 5.31721 11.4474 4.8149 9.99984 4.8149C8.55231 4.8149 7.32623 5.31721 6.3216 6.32184C5.31697 7.32647 4.81465 8.55255 4.81465 10.0001C4.81465 11.4476 5.31697 12.6737 6.3216 13.6783C7.32623 14.683 8.55231 15.1853 9.99984 15.1853Z" fill="#E37729"/>
</svg>
