<svg width="16" height="15" viewBox="0 0 16 15" fill="none" xmlns="http://www.w3.org/2000/svg">
<path d="M14 2.4H11.2V1.6C11.1994 1.17585 11.0306 0.769251 10.7307 0.46933C10.4307 0.16941 10.0242 0.0006348 9.6 0H6.4C5.97585 0.0006348 5.56925 0.16941 5.26933 0.46933C4.96941 0.769251 4.80063 1.17585 4.8 1.6V2.4H2C1.4697 2.40042 0.961235 2.61127 0.586255 2.98625C0.211274 3.36124 0.000423734 3.8697 0 4.4V12.4C0.000423734 12.9303 0.211274 13.4388 0.586255 13.8137C0.961235 14.1887 1.4697 14.3996 2 14.4H14C14.5303 14.3996 15.0388 14.1887 15.4137 13.8137C15.7887 13.4388 15.9996 12.9303 16 12.4V4.4C15.9996 3.8697 15.7887 3.36124 15.4137 2.98625C15.0388 2.61127 14.5303 2.40042 14 2.4ZM5.6 1.6C5.6 1.38783 5.68429 1.18434 5.83431 1.03431C5.98434 0.884286 6.18783 0.8 6.4 0.8H9.6C9.81217 0.8 10.0157 0.884286 10.1657 1.03431C10.3157 1.18434 10.4 1.38783 10.4 1.6V2.4H5.6V1.6ZM15.2 12.4C15.2 12.7183 15.0736 13.0235 14.8485 13.2485C14.6235 13.4736 14.3183 13.6 14 13.6H2C1.68174 13.6 1.37652 13.4736 1.15147 13.2485C0.926428 13.0235 0.8 12.7183 0.8 12.4V7.2216L5.4736 8.78C5.51442 8.79327 5.55708 8.80002 5.6 8.8H10.4C10.4429 8.80002 10.4856 8.79327 10.5264 8.78L15.2 7.2216V12.4ZM15.2 6.4048C15.1573 6.4032 15.1146 6.40861 15.0736 6.4208L10.3352 8H5.6648L0.9264 6.42C0.885421 6.40781 0.842724 6.4024 0.8 6.404V4.4C0.8 4.08174 0.926428 3.77652 1.15147 3.55147C1.37652 3.32643 1.68174 3.2 2 3.2H14C14.3183 3.2 14.6235 3.32643 14.8485 3.55147C15.0736 3.77652 15.2 4.08174 15.2 4.4V6.4048Z" fill="#298E32"/>
</svg>
