<svg width="15" height="15" viewBox="0 0 15 15" fill="none" xmlns="http://www.w3.org/2000/svg">
    <path d="M12.75 1.9H10.65V0.85C10.65 0.757174 10.6131 0.66815 10.5475 0.602513C10.4818 0.536875 10.3928 0.5 10.3 0.5C10.2072 0.5 10.1181 0.536875 10.0525 0.602513C9.98687 0.66815 9.95 0.757174 9.95 0.85V1.9H5.05V0.85C5.05 0.757174 5.01313 0.66815 4.94749 0.602513C4.88185 0.536875 4.79283 0.5 4.7 0.5C4.60717 0.5 4.51815 0.536875 4.45251 0.602513C4.38687 0.66815 4.35 0.757174 4.35 0.85V1.9H2.25C1.78604 1.90056 1.34125 2.08511 1.01318 2.41318C0.685109 2.74125 0.500556 3.18604 0.5 3.65V12.75C0.500556 13.214 0.685109 13.6588 1.01318 13.9868C1.34125 14.3149 1.78604 14.4994 2.25 14.5H12.75C13.214 14.4996 13.6589 14.3151 13.987 13.987C14.3151 13.6589 14.4996 13.214 14.5 12.75V3.65C14.4996 3.18598 14.3151 2.74108 13.987 2.41297C13.6589 2.08486 13.214 1.90037 12.75 1.9ZM13.8 12.75C13.8 13.0285 13.6894 13.2955 13.4925 13.4925C13.2955 13.6894 13.0285 13.8 12.75 13.8H2.25C1.97152 13.8 1.70445 13.6894 1.50754 13.4925C1.31062 13.2955 1.2 13.0285 1.2 12.75V6.8H13.8V12.75ZM13.8 6.1H1.2V3.65C1.2 3.0704 1.669 2.6 2.25 2.6H4.35V3.65C4.35 3.74283 4.38687 3.83185 4.45251 3.89749C4.51815 3.96312 4.60717 4 4.7 4C4.79283 4 4.88185 3.96312 4.94749 3.89749C5.01313 3.83185 5.05 3.74283 5.05 3.65V2.6H9.95V3.65C9.95 3.74283 9.98687 3.83185 10.0525 3.89749C10.1181 3.96312 10.2072 4 10.3 4C10.3928 4 10.4818 3.96312 10.5475 3.89749C10.6131 3.83185 10.65 3.74283 10.65 3.65V2.6H12.75C13.0285 2.6 13.2955 2.71062 13.4925 2.90754C13.6894 3.10445 13.8 3.37152 13.8 3.65V6.1Z" fill="#298E32"/>
</svg>
