<svg width="20" height="20" viewBox="0 0 20 20" fill="none" xmlns="http://www.w3.org/2000/svg">
<rect width="20" height="20" rx="4" fill="#298E32" fill-opacity="0.08"/>
<path d="M8.59375 10C8.59375 9.62704 8.74191 9.26935 9.00563 9.00563C9.26935 8.74191 9.62704 8.59375 10 8.59375C10.373 8.59375 10.7306 8.74191 10.9944 9.00563C11.2581 9.26935 11.4062 9.62704 11.4062 10C11.4062 10.373 11.2581 10.7306 10.9944 10.9944C10.7306 11.2581 10.373 11.4062 10 11.4062C9.62704 11.4062 9.26935 11.2581 9.00563 10.9944C8.74191 10.7306 8.59375 10.373 8.59375 10Z" fill="#298E32" fill-opacity="0.7"/>
<path fill-rule="evenodd" clip-rule="evenodd" d="M3.75 10C3.75 11.025 4.01563 11.3694 4.54688 12.06C5.6075 13.4375 7.38625 15 10 15C12.6138 15 14.3925 13.4375 15.4531 12.06C15.9844 11.37 16.25 11.0244 16.25 10C16.25 8.975 15.9844 8.63063 15.4531 7.94C14.3925 6.5625 12.6138 5 10 5C7.38625 5 5.6075 6.5625 4.54688 7.94C4.01563 8.63125 3.75 8.97562 3.75 10ZM10 7.65625C9.3784 7.65625 8.78226 7.90318 8.34272 8.34272C7.90318 8.78226 7.65625 9.3784 7.65625 10C7.65625 10.6216 7.90318 11.2177 8.34272 11.6573C8.78226 12.0968 9.3784 12.3438 10 12.3438C10.6216 12.3438 11.2177 12.0968 11.6573 11.6573C12.0968 11.2177 12.3438 10.6216 12.3438 10C12.3438 9.3784 12.0968 8.78226 11.6573 8.34272C11.2177 7.90318 10.6216 7.65625 10 7.65625Z" fill="#298E32" fill-opacity="0.7"/>
</svg>
