<svg width="14" height="14" viewBox="0 0 14 14" fill="none" xmlns="http://www.w3.org/2000/svg">
<path fill-rule="evenodd" clip-rule="evenodd" d="M8.49722 14C9.08464 14 9.64804 13.7675 10.0637 13.3534L13.3517 10.074C13.7668 9.6595 14 9.09758 14 8.51171C14 7.92584 13.7668 7.36392 13.3517 6.94939L7.38889 0.773792C6.9825 0.331625 6.37661 0 5.72639 0H2.21667C1.62877 0 1.06495 0.232927 0.649247 0.647538C0.233541 1.06215 0 1.62448 0 2.21083V5.71132C0 6.35983 0.3325 6.96413 0.775834 7.36944L6.93078 13.3534C7.34641 13.7675 7.90981 14 8.49722 14ZM12.8271 9.5508L9.53906 12.8302C8.96273 13.405 8.02434 13.405 7.448 12.8302L1.16744 6.71356C0.886667 6.47037 0.738889 6.11664 0.738889 5.71132V2.21083C0.738889 1.40019 1.38172 0.714836 2.1945 0.714836L5.72639 0.736944C6.13278 0.736944 6.48745 0.884333 6.73128 1.16437L12.8271 7.46525C13.4034 8.04006 13.4034 8.97598 12.8271 9.5508ZM4.63119 2.0135C4.28476 1.66799 3.81491 1.47389 3.325 1.47389C2.83509 1.47389 2.36524 1.66799 2.01882 2.0135C1.6724 2.35901 1.47778 2.82763 1.47778 3.31625C1.47778 3.80487 1.6724 4.27349 2.01882 4.619C2.36524 4.96451 2.83509 5.15861 3.325 5.15861C3.81491 5.15861 4.28476 4.96451 4.63119 4.619C4.97761 4.27349 5.17222 3.80487 5.17222 3.31625C5.17222 2.82763 4.97761 2.35901 4.63119 2.0135ZM2.54129 2.5346C2.74914 2.3273 3.03105 2.21083 3.325 2.21083C3.61895 2.21083 3.90086 2.3273 4.10871 2.5346C4.31656 2.74191 4.43333 3.02308 4.43333 3.31625C4.43333 3.60942 4.31656 3.89059 4.10871 4.0979C3.90086 4.3052 3.61895 4.42167 3.325 4.42167C3.03105 4.42167 2.74914 4.3052 2.54129 4.0979C2.33344 3.89059 2.21667 3.60942 2.21667 3.31625C2.21667 3.02308 2.33344 2.74191 2.54129 2.5346ZM9.11864 5.46559L8.67138 5.01833L6.52206 7.16766L6.04995 6.69555C5.80561 6.45122 5.59648 6.2835 5.42255 6.19239C5.24861 6.093 5.08503 6.04123 4.9318 6.03709C4.80342 6.03295 4.67712 6.05987 4.55288 6.11784C4.43278 6.17168 4.31268 6.25865 4.19259 6.37875C4.06421 6.50713 3.95446 6.64586 3.86335 6.79494C3.77225 6.93575 3.69149 7.09519 3.62109 7.27326L4.17395 7.49068C4.20708 7.41614 4.25056 7.33124 4.3044 7.23599C4.35824 7.13246 4.4245 7.04135 4.50318 6.96267C4.62742 6.83843 4.74752 6.77217 4.86347 6.76388C4.97529 6.75146 5.08917 6.78666 5.20513 6.86949C5.32108 6.94403 5.45154 7.05377 5.59648 7.19872L6.04374 7.64598L5.44118 8.24853L5.88844 8.69579L6.491 8.09324L8.23034 9.83257C8.37942 9.98166 8.5078 10.0935 8.61547 10.168C8.72315 10.2343 8.82047 10.2778 8.90743 10.2985C8.99026 10.315 9.07309 10.3233 9.15591 10.3233C9.28429 10.3192 9.41681 10.286 9.55347 10.2239C9.686 10.1577 9.82887 10.0479 9.9821 9.89469C10.1767 9.70005 10.3279 9.47021 10.4356 9.20517C10.5432 8.94013 10.6033 8.66473 10.6157 8.37898C10.624 8.0891 10.5847 7.8137 10.4977 7.5528C10.4107 7.28362 10.272 7.05377 10.0815 6.86328C9.83715 6.61894 9.59075 6.51334 9.34227 6.54647C9.09379 6.57131 8.85981 6.69348 8.64032 6.91297C8.5575 6.9958 8.48088 7.08483 8.41048 7.18008C8.34008 7.26705 8.28003 7.35609 8.23034 7.4472L8.71486 7.80749C8.78527 7.68739 8.87637 7.57143 8.98819 7.45962C9.11243 7.33538 9.22838 7.27326 9.33606 7.27326C9.44787 7.26912 9.55347 7.31675 9.65287 7.41614C9.7771 7.54037 9.86821 7.6936 9.92619 7.87582C9.98003 8.05389 10.0007 8.24025 9.98831 8.43489C9.98003 8.62539 9.93861 8.81175 9.86407 8.99396C9.79367 9.17204 9.69635 9.3232 9.57211 9.44744C9.41888 9.60066 9.28015 9.66899 9.15591 9.65243C9.03581 9.63172 8.87845 9.52405 8.68381 9.32941L6.96931 7.61492L9.11864 5.46559Z" fill="#298E32"/>
</svg>
