<svg width="22" height="22" viewBox="0 0 22 22" fill="none" xmlns="http://www.w3.org/2000/svg">
<path d="M20.8842 1.11728C20.53 0.763065 20.1096 0.48208 19.6468 0.290375C19.184 0.0986699 18.6881 0 18.1872 0C17.6863 0 17.1903 0.0986699 16.7275 0.290375C16.2648 0.48208 15.8443 0.763065 15.4902 1.11728L7.48719 9.12026C7.39376 9.2133 7.32737 9.32999 7.29512 9.45784L5.84003 15.2782C5.8097 15.4 5.8114 15.5276 5.84496 15.6485C5.87852 15.7695 5.94281 15.8797 6.03156 15.9684C6.12032 16.0572 6.23053 16.1215 6.35148 16.155C6.47243 16.1886 6.60001 16.1903 6.72181 16.16L12.5422 14.7049C12.6704 14.6733 12.7876 14.6074 12.8812 14.5143L20.8842 6.51129C21.2384 6.15714 21.5194 5.73668 21.7111 5.27392C21.9028 4.81117 22.0015 4.31518 22.0015 3.81429C22.0015 3.31339 21.9028 2.81741 21.7111 2.35465C21.5194 1.89189 21.2384 1.47143 20.8842 1.11728ZM16.5189 2.14603C16.9614 1.70358 17.5614 1.45501 18.1872 1.45501C18.8129 1.45501 19.413 1.70358 19.8554 2.14603C20.2979 2.58848 20.5464 3.18857 20.5464 3.81429C20.5464 4.44 20.2979 5.04009 19.8554 5.48254L11.9936 13.3429L7.54539 14.4546L8.65708 10.0064L16.5189 2.14603ZM10.1835 3.08602C10.5909 3.08602 10.9896 3.11512 11.381 3.1675L12.6236 1.92486C10.4636 1.39236 8.18867 1.58168 6.14639 2.46391C4.10412 3.34614 2.40684 4.87274 1.31391 6.81045C0.220977 8.74816 -0.207497 10.9904 0.0939589 13.1946C0.395414 15.3987 1.41022 17.4436 2.98331 19.0167C4.5564 20.5898 6.60126 21.6046 8.80542 21.906C11.0096 22.2075 13.2518 21.779 15.1895 20.6861C17.1273 19.5932 18.6539 17.8959 19.5361 15.8536C20.4183 13.8113 20.6076 11.5364 20.0751 9.37636L18.8325 10.619C19.0764 12.3801 18.7768 14.1736 17.9738 15.7598C17.1707 17.346 15.9026 18.6493 14.3389 19.4953C12.7752 20.3413 10.9905 20.6897 9.22343 20.494C7.45636 20.2983 5.79115 19.5677 4.45048 18.4001C3.10981 17.2324 2.15759 15.6833 1.72114 13.9598C1.28469 12.2363 1.38482 10.4207 2.00814 8.75563C2.63146 7.0906 3.74826 5.65555 5.2092 4.64239C6.67014 3.62922 8.40558 3.08623 10.1835 3.08602Z" fill="#298E32"/>
</svg>
