<svg width="18" height="19" viewBox="0 0 18 19" fill="none" xmlns="http://www.w3.org/2000/svg">
<circle cx="9" cy="9.5" r="9" fill="#298E32" fill-opacity="0.1"/>
<path d="M12.5942 5.40628C12.4655 5.27748 12.3126 5.1753 12.1443 5.10559C11.976 5.03588 11.7957 5 11.6135 5C11.4314 5 11.251 5.03588 11.0827 5.10559C10.9145 5.1753 10.7616 5.27748 10.6328 5.40628L7.72261 8.31646C7.68864 8.35029 7.6645 8.39272 7.65277 8.43921L7.12365 10.5557C7.11262 10.6 7.11324 10.6464 7.12544 10.6904C7.13764 10.7344 7.16102 10.7744 7.1933 10.8067C7.22557 10.839 7.26565 10.8624 7.30963 10.8746C7.35361 10.8868 7.4 10.8874 7.4443 10.8764L9.56079 10.3472C9.60741 10.3357 9.65003 10.3118 9.68407 10.2779L12.5942 7.36774C12.7231 7.23896 12.8252 7.08606 12.8949 6.91779C12.9646 6.74952 13.0005 6.56916 13.0005 6.38701C13.0005 6.20487 12.9646 6.02451 12.8949 5.85624C12.8252 5.68796 12.7231 5.53507 12.5942 5.40628ZM11.0069 5.78037C11.1678 5.61948 11.386 5.5291 11.6135 5.5291C11.8411 5.5291 12.0593 5.61948 12.2202 5.78037C12.381 5.94126 12.4714 6.15948 12.4714 6.38701C12.4714 6.61455 12.381 6.83276 12.2202 6.99365L9.36131 9.85197L7.74378 10.2562L8.14803 8.63869L11.0069 5.78037ZM8.70308 6.12219C8.85123 6.12219 8.99621 6.13277 9.13855 6.15182L9.59042 5.69995C8.80496 5.50631 7.9777 5.57516 7.23505 5.89597C6.49241 6.21678 5.87521 6.77191 5.47778 7.47653C5.08036 8.18115 4.92455 8.99651 5.03417 9.79803C5.14379 10.5995 5.51281 11.3431 6.08484 11.9152C6.65687 12.4872 7.40046 12.8562 8.20197 12.9658C9.00349 13.0755 9.81885 12.9196 10.5235 12.5222C11.2281 12.1248 11.7832 11.5076 12.104 10.7649C12.4248 10.0223 12.4937 9.19504 12.3001 8.40958L11.8482 8.86145C11.9369 9.50185 11.8279 10.154 11.5359 10.7308C11.2439 11.3076 10.7828 11.7816 10.2141 12.0892C9.64553 12.3968 8.99655 12.5235 8.35398 12.4524C7.7114 12.3812 7.10587 12.1155 6.61836 11.6909C6.13084 11.2663 5.78458 10.703 5.62587 10.0763C5.46716 9.44957 5.50357 8.78933 5.73023 8.18387C5.9569 7.5784 6.363 7.05657 6.89426 6.68814C7.42551 6.31972 8.05658 6.12226 8.70308 6.12219Z" fill="#298E32"/>
</svg>
