<svg width="16" height="14" viewBox="0 0 16 14" fill="none" xmlns="http://www.w3.org/2000/svg">
<path d="M2.52632 0.599976H13.4737C14.1437 0.599976 14.7863 0.86614 15.2601 1.33992C15.7338 1.81369 16 2.45627 16 3.12629V10.7052C16 11.3753 15.7338 12.0178 15.2601 12.4916C14.7863 12.9654 14.1437 13.2316 13.4737 13.2316H2.52632C1.8563 13.2316 1.21372 12.9654 0.739941 12.4916C0.266165 12.0178 0 11.3753 0 10.7052V3.12629C0 2.45627 0.266165 1.81369 0.739941 1.33992C1.21372 0.86614 1.8563 0.599976 2.52632 0.599976ZM2.52632 1.44208C2.10526 1.44208 1.73474 1.58524 1.44842 1.83787L8 6.07366L14.5516 1.83787C14.2653 1.58524 13.8947 1.44208 13.4737 1.44208H2.52632ZM8 7.09261L0.951579 2.51998C0.884211 2.70524 0.842105 2.91577 0.842105 3.12629V10.7052C0.842105 11.1519 1.01955 11.5803 1.3354 11.8962C1.65125 12.212 2.07964 12.3894 2.52632 12.3894H13.4737C13.9204 12.3894 14.3487 12.212 14.6646 11.8962C14.9805 11.5803 15.1579 11.1519 15.1579 10.7052V3.12629C15.1579 2.91577 15.1158 2.70524 15.0484 2.51998L8 7.09261Z" fill="#298E32"/>
</svg>
