<svg width="20" height="20" viewBox="0 0 20 20" fill="none" xmlns="http://www.w3.org/2000/svg">
<rect width="20" height="20" rx="4" fill="#298E32" fill-opacity="0.08"/>
<path fill-rule="evenodd" clip-rule="evenodd" d="M6.07143 6.25C6.07143 6.20264 6.09024 6.15722 6.12373 6.12373C6.15722 6.09024 6.20264 6.07143 6.25 6.07143H6.60714C6.74922 6.07143 6.88548 6.01499 6.98595 5.91452C7.08642 5.81406 7.14286 5.67779 7.14286 5.53571C7.14286 5.39363 7.08642 5.25737 6.98595 5.15691C6.88548 5.05644 6.74922 5 6.60714 5H6.25C5.91848 5 5.60054 5.1317 5.36612 5.36612C5.1317 5.60054 5 5.91848 5 6.25V6.60714C5 6.74922 5.05644 6.88548 5.15691 6.98595C5.25737 7.08642 5.39363 7.14286 5.53571 7.14286C5.67779 7.14286 5.81406 7.08642 5.91452 6.98595C6.01499 6.88548 6.07143 6.74922 6.07143 6.60714V6.25ZM12.8571 5.53571C12.8571 5.39363 12.9136 5.25737 13.0141 5.15691C13.1145 5.05644 13.2508 5 13.3929 5H13.75C14.44 5 15 5.56 15 6.25V6.60714C15 6.74922 14.9436 6.88548 14.8431 6.98595C14.7426 7.08642 14.6064 7.14286 14.4643 7.14286C14.3222 7.14286 14.1859 7.08642 14.0855 6.98595C13.985 6.88548 13.9286 6.74922 13.9286 6.60714V6.25C13.9286 6.20264 13.9098 6.15722 13.8763 6.12373C13.8428 6.09024 13.7974 6.07143 13.75 6.07143H13.3929C13.2508 6.07143 13.1145 6.01499 13.0141 5.91452C12.9136 5.81406 12.8571 5.67779 12.8571 5.53571ZM7.5 8.57143C7.5 8.28727 7.61288 8.01475 7.81381 7.81381C8.01475 7.61288 8.28727 7.5 8.57143 7.5H11.4286C11.7127 7.5 11.9853 7.61288 12.1862 7.81381C12.3871 8.01475 12.5 8.28727 12.5 8.57143V11.4286C12.5 11.7127 12.3871 11.9853 12.1862 12.1862C11.9853 12.3871 11.7127 12.5 11.4286 12.5H8.57143C8.28727 12.5 8.01475 12.3871 7.81381 12.1862C7.61288 11.9853 7.5 11.7127 7.5 11.4286V8.57143ZM14.4643 12.8571C14.6064 12.8571 14.7426 12.9136 14.8431 13.0141C14.9436 13.1145 15 13.2508 15 13.3929V13.75C15 14.0815 14.8683 14.3995 14.6339 14.6339C14.3995 14.8683 14.0815 15 13.75 15H13.3929C13.2508 15 13.1145 14.9436 13.0141 14.8431C12.9136 14.7426 12.8571 14.6064 12.8571 14.4643C12.8571 14.3222 12.9136 14.1859 13.0141 14.0855C13.1145 13.985 13.2508 13.9286 13.3929 13.9286H13.75C13.7974 13.9286 13.8428 13.9098 13.8763 13.8763C13.9098 13.8428 13.9286 13.7974 13.9286 13.75V13.3929C13.9286 13.2508 13.985 13.1145 14.0855 13.0141C14.1859 12.9136 14.3222 12.8571 14.4643 12.8571ZM6.07143 13.3929C6.07143 13.2508 6.01499 13.1145 5.91452 13.0141C5.81406 12.9136 5.67779 12.8571 5.53571 12.8571C5.39363 12.8571 5.25737 12.9136 5.15691 13.0141C5.05644 13.1145 5 13.2508 5 13.3929V13.75C5 14.44 5.56 15 6.25 15H6.60714C6.74922 15 6.88548 14.9436 6.98595 14.8431C7.08642 14.7426 7.14286 14.6064 7.14286 14.4643C7.14286 14.3222 7.08642 14.1859 6.98595 14.0855C6.88548 13.985 6.74922 13.9286 6.60714 13.9286H6.25C6.20264 13.9286 6.15722 13.9098 6.12373 13.8763C6.09024 13.8428 6.07143 13.7974 6.07143 13.75V13.3929ZM8.75 14.4643C8.75 14.3222 8.80644 14.1859 8.90691 14.0855C9.00737 13.985 9.14363 13.9286 9.28571 13.9286H10.7143C10.8564 13.9286 10.9926 13.985 11.0931 14.0855C11.1936 14.1859 11.25 14.3222 11.25 14.4643C11.25 14.6064 11.1936 14.7426 11.0931 14.8431C10.9926 14.9436 10.8564 15 10.7143 15H9.28571C9.14363 15 9.00737 14.9436 8.90691 14.8431C8.80644 14.7426 8.75 14.6064 8.75 14.4643ZM9.28571 5C9.14363 5 9.00737 5.05644 8.90691 5.15691C8.80644 5.25737 8.75 5.39363 8.75 5.53571C8.75 5.67779 8.80644 5.81406 8.90691 5.91452C9.00737 6.01499 9.14363 6.07143 9.28571 6.07143H10.7143C10.8564 6.07143 10.9926 6.01499 11.0931 5.91452C11.1936 5.81406 11.25 5.67779 11.25 5.53571C11.25 5.39363 11.1936 5.25737 11.0931 5.15691C10.9926 5.05644 10.8564 5 10.7143 5H9.28571ZM5.53571 8.75C5.67779 8.75 5.81406 8.80644 5.91452 8.90691C6.01499 9.00737 6.07143 9.14363 6.07143 9.28571V10.7143C6.07143 10.8564 6.01499 10.9926 5.91452 11.0931C5.81406 11.1936 5.67779 11.25 5.53571 11.25C5.39363 11.25 5.25737 11.1936 5.15691 11.0931C5.05644 10.9926 5 10.8564 5 10.7143V9.28571C5 9.14363 5.05644 9.00737 5.15691 8.90691C5.25737 8.80644 5.39363 8.75 5.53571 8.75ZM15 9.28571C15 9.14363 14.9436 9.00737 14.8431 8.90691C14.7426 8.80644 14.6064 8.75 14.4643 8.75C14.3222 8.75 14.1859 8.80644 14.0855 8.90691C13.985 9.00737 13.9286 9.14363 13.9286 9.28571V10.7143C13.9286 10.8564 13.985 10.9926 14.0855 11.0931C14.1859 11.1936 14.3222 11.25 14.4643 11.25C14.6064 11.25 14.7426 11.1936 14.8431 11.0931C14.9436 10.9926 15 10.8564 15 10.7143V9.28571Z" fill="#298E32"/>
</svg>
