<svg width="16" height="16" viewBox="0 0 16 16" fill="none" xmlns="http://www.w3.org/2000/svg">
    <path d="M1.77778 1H14.2222C14.4285 1 14.6263 1.08194 14.7722 1.22781C14.9181 1.37367 15 1.5715 15 1.77778V3.01133C15 3.2176 14.918 3.41539 14.7721 3.56122L9.78267 8.54989C9.63708 8.69584 9.55539 8.89363 9.55556 9.09978V14.0037C9.55555 14.1219 9.5286 14.2386 9.47674 14.3448C9.42488 14.4511 9.34948 14.5441 9.25628 14.6168C9.16307 14.6895 9.05451 14.7401 8.93885 14.7646C8.82318 14.789 8.70346 14.7868 8.58878 14.7581L7.03322 14.3692C6.86503 14.3271 6.71574 14.23 6.60907 14.0933C6.50239 13.9566 6.44445 13.7882 6.44444 13.6148V9.09978C6.4444 8.89351 6.36243 8.69572 6.21656 8.54989L1.22711 3.56122C1.08152 3.41527 0.999838 3.21748 1 3.01133V1.77778C1 1.5715 1.08194 1.37367 1.22781 1.22781C1.37367 1.08194 1.5715 1 1.77778 1Z" stroke="#298E32" stroke-linecap="round" stroke-linejoin="round"/>
</svg>
