<svg width="16" height="16" viewBox="0 0 16 16" fill="none" xmlns="http://www.w3.org/2000/svg">
<path d="M8 0C3.58892 0 0 3.58892 0 8C0 12.4111 3.58892 16 8 16C12.4111 16 16 12.4111 16 8C16 3.58892 12.4111 0 8 0ZM8 1.23077C11.7458 1.23077 14.7692 4.25415 14.7692 8C14.7692 11.7458 11.7458 14.7692 8 14.7692C4.25415 14.7692 1.23077 11.7458 1.23077 8C1.23077 4.25415 4.25415 1.23077 8 1.23077ZM4.92308 3.07692C4.75987 3.07692 4.60334 3.14176 4.48793 3.25717C4.37253 3.37257 4.30769 3.5291 4.30769 3.69231C4.30769 3.85552 4.37253 4.01204 4.48793 4.12745C4.60334 4.24286 4.75987 4.30769 4.92308 4.30769C5.08629 4.30769 5.24281 4.24286 5.35822 4.12745C5.47363 4.01204 5.53846 3.85552 5.53846 3.69231C5.53846 3.5291 5.47363 3.37257 5.35822 3.25717C5.24281 3.14176 5.08629 3.07692 4.92308 3.07692ZM4.30769 4.92308V11.6923H5.53846V4.92308H4.30769ZM6.76923 4.92308V11.6923H9.53846C11.4006 11.6923 12.9231 10.1698 12.9231 8.30769C12.9231 6.44554 11.4006 4.92308 9.53846 4.92308H6.76923ZM8 6.15385H9.53846C10.7348 6.15385 11.6923 7.11138 11.6923 8.30769C11.6923 9.504 10.7348 10.4615 9.53846 10.4615H8V6.15385Z" fill="#298E32"/>
</svg>
