<svg width="17" height="22" viewBox="0 0 17 22" fill="none" xmlns="http://www.w3.org/2000/svg">
<path fill-rule="evenodd" clip-rule="evenodd" d="M1.7907 3.58139C1.64942 3.58139 1.53488 3.69592 1.53488 3.83721V20.2093C1.53488 20.3506 1.64942 20.4651 1.7907 20.4651H15.093C15.2343 20.4651 15.3488 20.3506 15.3488 20.2093V3.83721C15.3488 3.69592 15.2343 3.58139 15.093 3.58139H1.7907ZM0 3.83721C0 2.84823 0.801723 2.04651 1.7907 2.04651H15.093C16.082 2.04651 16.8837 2.84823 16.8837 3.83721V20.2093C16.8837 21.1983 16.082 22 15.093 22H1.7907C0.801723 22 0 21.1983 0 20.2093V3.83721Z" fill="#298E32"/>
<path fill-rule="evenodd" clip-rule="evenodd" d="M5.37163 0C5.79548 0 6.13907 0.343595 6.13907 0.767442V3.83721C6.13907 4.26106 5.79548 4.60465 5.37163 4.60465C4.94778 4.60465 4.60419 4.26106 4.60419 3.83721V0.767442C4.60419 0.343595 4.94778 0 5.37163 0ZM11.5112 0C11.935 0 12.2786 0.343595 12.2786 0.767442V3.83721C12.2786 4.26106 11.935 4.60465 11.5112 4.60465C11.0873 4.60465 10.7437 4.26106 10.7437 3.83721V0.767442C10.7437 0.343595 11.0873 0 11.5112 0ZM3.58093 8.44186C3.58093 8.01801 3.92453 7.67442 4.34837 7.67442H12.5344C12.9583 7.67442 13.3019 8.01801 13.3019 8.44186C13.3019 8.86571 12.9583 9.2093 12.5344 9.2093H4.34837C3.92453 9.2093 3.58093 8.86571 3.58093 8.44186ZM3.58093 12.5349C3.58093 12.111 3.92453 11.7674 4.34837 11.7674H10.4879C10.9118 11.7674 11.2554 12.111 11.2554 12.5349C11.2554 12.9587 10.9118 13.3023 10.4879 13.3023H4.34837C3.92453 13.3023 3.58093 12.9587 3.58093 12.5349ZM3.58093 16.6279C3.58093 16.2041 3.92453 15.8605 4.34837 15.8605H8.4414C8.86524 15.8605 9.20884 16.2041 9.20884 16.6279C9.20884 17.0518 8.86524 17.3953 8.4414 17.3953H4.34837C3.92453 17.3953 3.58093 17.0518 3.58093 16.6279Z" fill="#298E32"/>
</svg>
