<svg width="16" height="20" viewBox="0 0 16 20" fill="none" xmlns="http://www.w3.org/2000/svg">
<path d="M10 8.54736C10 8.01693 9.78929 7.50822 9.41421 7.13315C9.03914 6.75808 8.53043 6.54736 8 6.54736C7.46957 6.54736 6.96086 6.75808 6.58579 7.13315C6.21071 7.50822 6 8.01693 6 8.54736C6 9.0778 6.21071 9.5865 6.58579 9.96158C6.96086 10.3367 7.46957 10.5474 8 10.5474C8.53043 10.5474 9.03914 10.3367 9.41421 9.96158C9.78929 9.5865 10 9.0778 10 8.54736ZM16 8.54736C16 12.3794 11.8707 16.5687 9.54533 18.6247C9.12015 19.0044 8.57005 19.2143 8 19.2143C7.42995 19.2143 6.87985 19.0044 6.45467 18.6247C4.12933 16.5687 0 12.3794 0 8.54736C-1.56548e-08 7.49679 0.206926 6.4565 0.608964 5.4859C1.011 4.51529 1.60028 3.63338 2.34315 2.89051C3.08601 2.14764 3.96793 1.55836 4.93853 1.15633C5.90914 0.754289 6.94943 0.547363 8 0.547363C9.05058 0.547363 10.0909 0.754289 11.0615 1.15633C12.0321 1.55836 12.914 2.14764 13.6569 2.89051C14.3997 3.63338 14.989 4.51529 15.391 5.4859C15.7931 6.4565 16 7.49679 16 8.54736ZM14.6667 8.54736C14.6667 6.77925 13.9643 5.08356 12.714 3.83332C11.4638 2.58308 9.76811 1.8807 8 1.8807C6.23189 1.8807 4.5362 2.58308 3.28595 3.83332C2.03571 5.08356 1.33333 6.77925 1.33333 8.54736C1.33333 10.0247 2.15333 11.7407 3.42667 13.458C4.672 15.1354 6.20933 16.6274 7.33733 17.626C7.51883 17.7906 7.75503 17.8817 8 17.8817C8.24497 17.8817 8.48117 17.7906 8.66267 17.626C9.79067 16.6274 11.3293 15.1367 12.5733 13.458C13.8467 11.7407 14.6667 10.0247 14.6667 8.54736Z" fill="#298E32"/>
</svg>
