<svg width="22" height="24" viewBox="0 0 22 24" fill="none" xmlns="http://www.w3.org/2000/svg">
<path fill-rule="evenodd" clip-rule="evenodd" d="M9.55335 1.7896C8.73413 1.89977 8.30059 2.10127 7.99214 2.41008C7.72034 2.68152 7.53303 3.04814 7.41687 3.68074C7.29631 4.33732 7.26476 5.2025 7.25802 6.42322C7.25547 6.88559 6.87858 7.25835 6.41621 7.2558C5.95384 7.25325 5.58108 6.87636 5.58363 6.41399C5.59029 5.20681 5.61902 4.20054 5.76999 3.37834C5.92533 2.53232 6.22144 1.8122 6.80783 1.2264C7.47941 0.554258 8.32556 0.265228 9.33017 0.130122C10.298 -4.09775e-05 11.5286 -2.24113e-05 13.055 6.09929e-07H14.2938C15.8202 -2.24113e-05 17.0508 -4.09775e-05 18.0186 0.130122C19.0233 0.265229 19.8694 0.554263 20.541 1.22642C21.2132 1.898 21.5022 2.74417 21.6373 3.74878C21.7675 4.71664 21.7675 5.94725 21.7674 7.47363V16.5264C21.7675 18.0527 21.7675 19.2834 21.6373 20.2512C21.5022 21.256 21.2131 22.1023 20.5407 22.7739C19.8691 23.4458 19.0231 23.7348 18.0186 23.8699C17.0508 24 15.8202 24 14.2938 24H13.055C11.5281 24 10.2975 24 9.32973 23.8699C8.32534 23.7348 7.47965 23.4458 6.80819 22.774C6.22157 22.1881 5.92537 21.4679 5.76999 20.6217C5.61902 19.7995 5.59029 18.7932 5.58363 17.586C5.58108 17.1236 5.95384 16.7467 6.41621 16.7442C6.87858 16.7416 7.25547 17.1144 7.25802 17.5768C7.26476 18.7975 7.29631 19.6627 7.41687 20.3193C7.53303 20.9519 7.71962 21.3178 7.99142 21.5892C8.29993 21.8981 8.73398 22.1002 9.55294 22.2104C10.396 22.3238 11.5136 22.3256 13.1163 22.3256H14.2325C15.8346 22.3256 16.9522 22.3238 17.7955 22.2104C18.6147 22.1002 19.0482 21.8987 19.3567 21.5899C19.6655 21.2815 19.8677 20.8473 19.9778 20.028C20.0912 19.1848 20.093 18.0672 20.093 16.4651V7.53488C20.093 5.93279 20.0912 4.81519 19.9778 3.97196C19.8677 3.15275 19.6662 2.71921 19.3574 2.41075C19.0489 2.10194 18.6147 1.89977 17.7955 1.7896C16.9522 1.6762 15.8346 1.67442 14.2325 1.67442H13.1163C11.5142 1.67442 10.3966 1.6762 9.55335 1.7896Z" fill="#1E7F27"/>
<path opacity="0.5" fill-rule="evenodd" clip-rule="evenodd" d="M3.46774 4.55981C2.80041 4.64949 2.47332 4.81004 2.24632 5.03703C2.01933 5.26403 1.85878 5.59112 1.7691 6.25845C1.6762 6.94978 1.67442 7.87013 1.67442 9.20932V14.7907C1.67442 16.1299 1.6762 17.05 1.7691 17.7411C1.85875 18.4082 2.01928 18.7356 2.24673 18.9634C2.47371 19.1902 2.8008 19.3506 3.46774 19.4402C4.15906 19.5331 5.07942 19.5349 6.41861 19.5349V21.2093H6.35869C5.09412 21.2093 4.06065 21.2094 3.24473 21.0997C2.39197 20.9851 1.65245 20.7371 1.06233 20.147C0.472667 19.5565 0.224227 18.817 0.109603 17.9642C-4.83879e-05 17.1484 -2.62325e-05 16.1152 8.47423e-07 14.8506V9.14941C-2.62325e-05 7.88484 -4.83213e-05 6.85136 0.1096 6.03544C0.224199 5.18268 0.472213 4.44316 1.06233 3.85304C1.65245 3.26292 2.39197 3.01491 3.24473 2.90031C4.06065 2.79066 5.09413 2.79068 6.3587 2.79071L6.41861 2.79071V4.46513C5.07942 4.46513 4.15906 4.46691 3.46774 4.55981Z" fill="#1E7F27"/>
<path fill-rule="evenodd" clip-rule="evenodd" d="M7.01064 9.17545C7.33759 9.5024 7.33759 10.0325 7.01064 10.3594L6.20729 11.1628H14.2326C14.695 11.1628 15.0698 11.5376 15.0698 12C15.0698 12.4624 14.695 12.8372 14.2326 12.8372H6.20729L7.01064 13.6406C7.33759 13.9675 7.33759 14.4976 7.01064 14.8246C6.68369 15.1515 6.1536 15.1515 5.82665 14.8246L3.59409 12.592C3.26714 12.265 3.26714 11.735 3.59409 11.408L5.82665 9.17545C6.1536 8.8485 6.68369 8.8485 7.01064 9.17545Z" fill="#1E7F27"/>
</svg>
