<svg width="104" height="104" viewBox="0 0 104 104" fill="none" xmlns="http://www.w3.org/2000/svg">
<path d="M67 26H60.6405H60.5089H59.6677C49.943 26 45.0827 30.0215 45.0827 38.0995V42.6363H37.7982C36.8054 42.6363 36 43.415 36 44.3797V51.6595C36 52.6242 36.8054 53.4068 37.7982 53.4068H45.0827V64.2898C45.0827 64.2898 45.1066 73.3595 36.7775 77.3229C36.7775 77.3229 55.5808 82.4874 55.5808 64.2898V53.4068H62.5224C64.9945 53.4068 67 51.4581 67 49.056V44.3797C67 43.415 66.1946 42.6324 65.2018 42.6324H55.5808V40.7882C55.5808 38.1343 56.9365 36.8054 60.6485 36.8054H64.0096C65.6603 36.8054 67 35.5037 67 33.8997V31.4511V26Z" fill="#298E32"/>
<path fill-rule="evenodd" clip-rule="evenodd" d="M52 98C77.4051 98 98 77.4051 98 52C98 26.5949 77.4051 6 52 6C26.5949 6 6 26.5949 6 52C6 77.4051 26.5949 98 52 98ZM52 104C80.7188 104 104 80.7188 104 52C104 23.2812 80.7188 0 52 0C23.2812 0 0 23.2812 0 52C0 80.7188 23.2812 104 52 104Z" fill="#298E32"/>
</svg>
