<svg width="19" height="15" viewBox="0 0 19 15" fill="none" xmlns="http://www.w3.org/2000/svg">
<path fill-rule="evenodd" clip-rule="evenodd" d="M0 1C0 0.447715 0.447715 0 1 0H18C18.5523 0 19 0.447715 19 1V2C19 2.55228 18.5523 3 18 3H1C0.447715 3 0 2.55228 0 2V1ZM5 13C5 12.4477 5.44772 12 6 12H18C18.5523 12 19 12.4477 19 13V14C19 14.5523 18.5523 15 18 15H6C5.44772 15 5 14.5523 5 14V13ZM11 6C10.4477 6 10 6.44772 10 7V8C10 8.55228 10.4477 9 11 9H18C18.5523 9 19 8.55229 19 8V7C19 6.44772 18.5523 6 18 6H11Z" fill="#298E32"/>
</svg>
