<svg width="14" height="20" viewBox="0 0 14 20" fill="none" xmlns="http://www.w3.org/2000/svg">
<path fill-rule="evenodd" clip-rule="evenodd" d="M1.48485 3.84847C1.3677 3.84847 1.27273 3.94344 1.27273 4.06059V17.6364C1.27273 17.7535 1.3677 17.8485 1.48485 17.8485H12.5152C12.6323 17.8485 12.7273 17.7535 12.7273 17.6364V4.06059C12.7273 3.94344 12.6323 3.84847 12.5152 3.84847H1.48485ZM0 4.06059C0 3.24053 0.664789 2.57574 1.48485 2.57574H12.5152C13.3352 2.57574 14 3.24053 14 4.06059V17.6364C14 18.4564 13.3352 19.1212 12.5152 19.1212H1.48485C0.664789 19.1212 0 18.4564 0 17.6364V4.06059Z" fill="#298E32"/>
<path fill-rule="evenodd" clip-rule="evenodd" d="M4.45409 0.878784C4.80554 0.878784 5.09045 1.16369 5.09045 1.51515V4.0606C5.09045 4.41206 4.80554 4.69697 4.45409 4.69697C4.10263 4.69697 3.81772 4.41206 3.81772 4.0606V1.51515C3.81772 1.16369 4.10263 0.878784 4.45409 0.878784ZM9.545 0.878784C9.89645 0.878784 10.1814 1.16369 10.1814 1.51515V4.0606C10.1814 4.41206 9.89645 4.69697 9.545 4.69697C9.19354 4.69697 8.90863 4.41206 8.90863 4.0606V1.51515C8.90863 1.16369 9.19354 0.878784 9.545 0.878784ZM2.96924 7.87878C2.96924 7.52733 3.25415 7.24242 3.6056 7.24242H10.3935C10.7449 7.24242 11.0298 7.52733 11.0298 7.87878C11.0298 8.23024 10.7449 8.51515 10.3935 8.51515H3.6056C3.25415 8.51515 2.96924 8.23024 2.96924 7.87878ZM2.96924 11.2727C2.96924 10.9213 3.25415 10.6364 3.6056 10.6364H8.69651C9.04796 10.6364 9.33287 10.9213 9.33287 11.2727C9.33287 11.6242 9.04796 11.9091 8.69651 11.9091H3.6056C3.25415 11.9091 2.96924 11.6242 2.96924 11.2727ZM2.96924 14.6667C2.96924 14.3152 3.25415 14.0303 3.6056 14.0303H6.99954C7.351 14.0303 7.6359 14.3152 7.6359 14.6667C7.6359 15.0181 7.351 15.303 6.99954 15.303H3.6056C3.25415 15.303 2.96924 15.0181 2.96924 14.6667Z" fill="#298E32"/>
</svg>
