<svg width="20" height="20" viewBox="0 0 20 20" fill="none" xmlns="http://www.w3.org/2000/svg">
<path d="M0 0.857203C0 0.629858 0.0903121 0.411825 0.251069 0.251069C0.411825 0.0903121 0.629858 0 0.857203 0H1.49496C2.58075 0 3.23223 0.730337 3.60368 1.40924C3.8517 1.86184 4.03114 2.38645 4.17172 2.86191C4.20974 2.85891 4.24787 2.85739 4.28601 2.85734H18.5704C19.5191 2.85734 20.2048 3.76483 19.9443 4.67804L17.855 12.0031C17.6676 12.6601 17.2713 13.2382 16.7261 13.6499C16.1808 14.0615 15.5162 14.2843 14.833 14.2844H8.03485C7.34622 14.2845 6.67664 14.0583 6.12903 13.6408C5.58141 13.2233 5.18608 12.6375 5.00378 11.9734L4.13515 8.80519L2.69504 3.94999L2.6939 3.94085C2.5156 3.2928 2.34874 2.6859 2.09958 2.2333C1.8607 1.79327 1.66869 1.71441 1.4961 1.71441H0.857203C0.629858 1.71441 0.411825 1.62409 0.251069 1.46334C0.0903121 1.30258 0 1.08455 0 0.857203ZM5.79812 8.38916L6.65647 11.5197C6.82791 12.1391 7.39137 12.57 8.03485 12.57H14.833C15.1436 12.57 15.4457 12.4688 15.6936 12.2818C15.9414 12.0947 16.1216 11.832 16.2068 11.5334L18.1921 4.57175H4.6689L5.78212 8.32858L5.79812 8.38916ZM9.71496 17.7155C9.71496 18.3218 9.47413 18.9032 9.04545 19.3319C8.61676 19.7606 8.03534 20.0014 7.42909 20.0014C6.82284 20.0014 6.24142 19.7606 5.81273 19.3319C5.38405 18.9032 5.14322 18.3218 5.14322 17.7155C5.14322 17.1093 5.38405 16.5279 5.81273 16.0992C6.24142 15.6705 6.82284 15.4297 7.42909 15.4297C8.03534 15.4297 8.61676 15.6705 9.04545 16.0992C9.47413 16.5279 9.71496 17.1093 9.71496 17.7155ZM8.00056 17.7155C8.00056 17.564 7.94035 17.4186 7.83318 17.3114C7.72601 17.2043 7.58065 17.1441 7.42909 17.1441C7.27753 17.1441 7.13217 17.2043 7.025 17.3114C6.91783 17.4186 6.85762 17.564 6.85762 17.7155C6.85762 17.8671 6.91783 18.0124 7.025 18.1196C7.13217 18.2268 7.27753 18.287 7.42909 18.287C7.58065 18.287 7.72601 18.2268 7.83318 18.1196C7.94035 18.0124 8.00056 17.8671 8.00056 17.7155ZM17.7155 17.7155C17.7155 18.3218 17.4747 18.9032 17.046 19.3319C16.6173 19.7606 16.0359 20.0014 15.4296 20.0014C14.8234 20.0014 14.242 19.7606 13.8133 19.3319C13.3846 18.9032 13.1438 18.3218 13.1438 17.7155C13.1438 17.1093 13.3846 16.5279 13.8133 16.0992C14.242 15.6705 14.8234 15.4297 15.4296 15.4297C16.0359 15.4297 16.6173 15.6705 17.046 16.0992C17.4747 16.5279 17.7155 17.1093 17.7155 17.7155ZM16.0011 17.7155C16.0011 17.564 15.9409 17.4186 15.8337 17.3114C15.7266 17.2043 15.5812 17.1441 15.4296 17.1441C15.2781 17.1441 15.1327 17.2043 15.0256 17.3114C14.9184 17.4186 14.8582 17.564 14.8582 17.7155C14.8582 17.8671 14.9184 18.0124 15.0256 18.1196C15.1327 18.2268 15.2781 18.287 15.4296 18.287C15.5812 18.287 15.7266 18.2268 15.8337 18.1196C15.9409 18.0124 16.0011 17.8671 16.0011 17.7155Z" fill="#298E32"/>
</svg>
