<svg width="14" height="14" viewBox="0 0 14 14" fill="none" xmlns="http://www.w3.org/2000/svg">
<path fill-rule="evenodd" clip-rule="evenodd" d="M7.22866 0L14 2.41173V10.6312L7.24396 14L0 11.1103V2.88357L7.22866 0ZM7.23801 0.497513L0.940355 3.0097L7.22311 4.88938L13.1021 2.5861L7.23801 0.497513ZM13.5333 2.91714L7.46667 5.29397V13.3686L13.5333 10.3436V2.91714ZM7 13.4014V5.30851L0.466667 3.35386V10.7952L7 13.4014Z" fill="#298E32"/>
<path fill-rule="evenodd" clip-rule="evenodd" d="M3.94693 4.27334L10.7178 1.23816L9.69597 0.870728L3.0144 3.65747V7.00032L3.94693 7.23436V4.27334Z" fill="#298E32"/>
<path fill-rule="evenodd" clip-rule="evenodd" d="M9.78978 4.22475L3.48315 1.50435L4.40592 1.13855L10.7176 3.6821L10.7174 6.77112L9.78994 7.23424L9.78978 4.22475Z" fill="#298E32"/>
</svg>
