<svg width="16" height="16" viewBox="0 0 16 16" fill="none" xmlns="http://www.w3.org/2000/svg">
<path d="M15.3986 11.1775L11.4635 9.41661C11.311 9.35059 11.1444 9.32363 10.9788 9.33818C10.8132 9.35273 10.6538 9.40833 10.5152 9.49994C10.5041 9.50697 10.4935 9.51477 10.4835 9.52327L8.41679 11.285C8.3708 11.313 8.3186 11.3293 8.26481 11.3323C8.21103 11.3354 8.15732 11.3251 8.10845 11.3025C6.7551 10.6491 5.35425 9.2591 4.70091 7.92159C4.6778 7.87308 4.66707 7.81961 4.66969 7.76595C4.6723 7.71228 4.68818 7.6601 4.71591 7.61408L6.4826 5.51322C6.49093 5.50322 6.49843 5.49239 6.50593 5.48155C6.59726 5.34305 6.65269 5.18401 6.66724 5.01874C6.68179 4.85348 6.65499 4.6872 6.58927 4.53487L4.82508 0.606485C4.73991 0.407521 4.59249 0.241558 4.40496 0.133517C4.21743 0.0254766 3.99991 -0.018809 3.78506 0.00731059C2.73635 0.145579 1.77384 0.660872 1.0773 1.45694C0.380755 2.25302 -0.00218332 3.27542 9.36447e-06 4.3332C9.36447e-06 10.7666 5.23341 16 11.6668 16C12.7246 16.0022 13.747 15.6193 14.5431 14.9227C15.3392 14.2262 15.8545 13.2637 15.9927 12.215C16.0187 12.0011 15.9748 11.7846 15.8678 11.5976C15.7607 11.4107 15.5961 11.2633 15.3986 11.1775ZM15.3336 12.1316C15.2159 13.0198 14.7788 13.8346 14.1039 14.4239C13.4291 15.0132 12.5627 15.3365 11.6668 15.3334C5.60175 15.3334 0.666685 10.3983 0.666685 4.3332C0.663582 3.43731 0.986881 2.57096 1.57614 1.89612C2.16539 1.22129 2.98026 0.784165 3.8684 0.666486C3.88172 0.665659 3.89508 0.665659 3.9084 0.666486C3.97416 0.667047 4.03828 0.687047 4.09271 0.72397C4.14713 0.760894 4.18941 0.81309 4.21423 0.873989L5.97343 4.80238C5.99395 4.85039 6.00291 4.90255 5.99958 4.95466C5.99625 5.00677 5.98073 5.05737 5.95426 5.10238L4.1884 7.20241C4.18007 7.21324 4.17173 7.22324 4.16423 7.23491C4.07016 7.37877 4.01475 7.54446 4.00336 7.71598C3.99198 7.8875 4.025 8.05905 4.09923 8.21409C4.82341 9.69661 6.31676 11.1791 7.81595 11.9033C7.97205 11.9771 8.14458 12.0091 8.31675 11.9964C8.48893 11.9837 8.65488 11.9267 8.79846 11.8308L8.8293 11.8075L10.8985 10.0474C10.9428 10.0204 10.9928 10.0043 11.0445 10.0004C11.0963 9.99644 11.1482 10.0049 11.196 10.0249L15.1302 11.7883C15.1966 11.8159 15.2523 11.8643 15.2889 11.9262C15.3256 11.9881 15.3412 12.0601 15.3336 12.1316Z" fill="#298E32"/>
</svg>
