<svg width="18" height="11" viewBox="0 0 18 11" fill="none" xmlns="http://www.w3.org/2000/svg">
<path d="M7.70479 1.82481V2.49014C7.70479 2.62523 7.60966 2.73487 7.49244 2.73487H7.25376C6.99016 2.73487 6.89389 2.84679 6.89389 3.07031V3.22563H7.5771C7.6476 3.22563 7.70479 3.29154 7.70479 3.37279V3.76664C7.70479 3.96895 7.56237 4.13308 7.38683 4.13308H6.89389V5.04966C6.89389 6.5823 5.55863 6.14734 5.55863 6.14734C6.1501 5.81353 6.1484 5.04966 6.1484 5.04966V4.13308H5.63111C5.56061 4.13308 5.50342 4.06716 5.50342 3.98591V3.37279C5.50342 3.29154 5.56061 3.22595 5.63111 3.22595H6.1484V2.84385C6.1484 2.16351 6.49354 1.82481 7.18411 1.82481H7.70479Z" fill="#298E32"/>
<path d="M11.8078 9.70801C12.4117 9.70801 12.9012 9.22108 12.9012 8.62042C12.9012 8.01976 12.4117 7.53283 11.8078 7.53283C11.204 7.53283 10.7145 8.01976 10.7145 8.62042C10.7145 9.22108 11.204 9.70801 11.8078 9.70801Z" fill="#298E32"/>
<path d="M4.54858 8.62042C4.54858 9.22108 4.05907 9.70801 3.45523 9.70801C2.85139 9.70801 2.36188 9.22108 2.36188 8.62042C2.36188 8.01976 2.85139 7.53283 3.45523 7.53283C4.05907 7.53283 4.54858 8.01976 4.54858 8.62042Z" fill="#298E32"/>
<path fill-rule="evenodd" clip-rule="evenodd" d="M9.43121 8.95892C9.34717 8.98087 9.25819 8.99268 9.16503 8.99268H6.07578C5.99023 8.99268 5.90823 8.98262 5.83042 8.96376C5.66306 10.1189 4.66357 11 3.46291 11C2.27371 11 1.27356 10.1347 1.0926 8.99268H0.887885C0.395743 8.99268 0 8.59237 0 8.10217V1.57664C0 0.710843 0.714607 0 1.58499 0H9.95019C10.6944 0 11.3248 0.519739 11.4918 1.21168H11.5425V2.65694H15.6741C16.7631 2.65694 17.6483 3.52877 17.6625 4.60873C17.6631 4.62959 17.6635 4.65053 17.6635 4.67154V5.29927C17.6635 5.31485 17.6632 5.33037 17.6627 5.34582V7.70802C17.6627 8.41323 17.0875 8.98539 16.3785 8.98539H14.1712C13.9945 10.1305 12.9987 11 11.7996 11C10.5898 11 9.59543 10.1158 9.43121 8.95892ZM0.733789 1.57664C0.733789 1.11397 1.11987 0.729925 1.58499 0.729925H9.95019C10.4153 0.729925 10.8014 1.11397 10.8014 1.57664V1.9416H10.8087V6.25546C10.8087 6.35068 10.768 6.43859 10.6952 6.5C10.1096 6.80496 9.66737 7.34506 9.49106 7.99245C9.4377 8.16807 9.30221 8.26275 9.16503 8.26275H6.07578C5.95496 8.26275 5.83774 8.18758 5.78406 8.04002C5.52522 7.00319 4.58825 6.23359 3.46291 6.23359C2.2598 6.23359 1.26366 7.11412 1.09018 8.26275H0.887885C0.807671 8.26275 0.733789 8.19591 0.733789 8.10217V1.57664ZM11.5429 3.38686H13.6125C13.519 3.56846 13.4662 3.77438 13.4662 3.99271V4.94891C13.4662 5.8731 14.2248 6.62774 15.1539 6.62774H16.328C16.5442 6.62774 16.7483 6.57679 16.9289 6.48628V7.70802C16.9289 8.01011 16.6822 8.25546 16.3785 8.25546H14.1713C13.9947 7.11039 13.0003 6.23357 11.7997 6.23357C11.7118 6.23357 11.6262 6.23848 11.5429 6.24751V3.38686ZM16.9289 4.63504L16.9288 4.62507C16.9041 3.9429 16.3372 3.39417 15.6455 3.39417H14.8017C14.4686 3.39417 14.2 3.66143 14.2 3.99271V4.94891C14.2 5.46997 14.6301 5.89781 15.1539 5.89781H16.328C16.6504 5.89781 16.9126 5.64722 16.9289 5.33055V4.63504ZM10.2 8.18124C10.1617 8.32125 10.1412 8.46854 10.1412 8.62044C10.1412 9.53567 10.8795 10.2701 11.7996 10.2701C12.7214 10.2701 13.4653 9.53395 13.4653 8.62044C13.4653 7.70522 12.7196 6.96351 11.7996 6.96351C11.7327 6.96351 11.6671 6.96764 11.6021 6.97546C11.5561 6.981 11.5103 6.9884 11.4648 6.99749C11.4044 7.00953 11.3444 7.02455 11.2842 7.04218C11.2145 7.0649 11.1469 7.09213 11.0816 7.12354C11.0567 7.1405 11.0309 7.15651 11.0043 7.17152L10.9995 7.17424C10.6164 7.38265 10.3211 7.74783 10.201 8.17795L10.2 8.18124ZM1.79778 8.62771V8.66409C1.82125 9.55648 2.56222 10.2701 3.46291 10.2701C4.37651 10.2701 5.12128 9.53481 5.12128 8.62044C5.12128 8.48904 5.10608 8.36127 5.07734 8.23879C5.07133 8.21982 5.06581 8.20067 5.06078 8.18136C4.86756 7.48296 4.22468 6.97078 3.46349 6.97078C2.54342 6.97078 1.79778 7.71249 1.79778 8.62771Z" fill="#298E32"/>
</svg>
