<svg width="16" height="16" viewBox="0 0 16 16" fill="none" xmlns="http://www.w3.org/2000/svg">
<path d="M7.56979 7.23963C7.50661 7.27113 7.46667 7.33572 7.46667 7.4064V15.1451C7.46667 15.2157 7.42673 15.2803 7.36355 15.3118L7.01616 15.485C6.96399 15.511 6.90266 15.5111 6.85047 15.4851L0.10328 12.129C0.0400111 12.0975 0 12.0329 0 11.9622V3.55053C0 3.47985 0.039939 3.41526 0.103121 3.38376L6.85041 0.01953C6.90263 -0.00651008 6.96403 -0.00650996 7.01626 0.0195301L13.7635 3.38376C13.8267 3.41526 13.8667 3.47985 13.8667 3.55053V9.43157C13.8667 9.53446 13.7834 9.61787 13.6806 9.61787H12.986C12.8833 9.61787 12.8 9.53446 12.8 9.43157V4.9327C12.8 4.79435 12.6547 4.70426 12.531 4.76593L7.56979 7.23963ZM7.01605 1.21601C6.96394 1.19007 6.90271 1.19004 6.85058 1.21592L5.25857 2.00641C5.12118 2.07463 5.12057 2.27065 5.25754 2.33972L10.017 4.73954C10.0692 4.76589 10.1309 4.76608 10.1833 4.74004L11.806 3.93427C11.9437 3.86586 11.9438 3.6691 11.8061 3.60054L7.01605 1.21601ZM6.13103 13.938C6.25471 13.9996 6.4 13.9095 6.4 13.7712V7.4064C6.4 7.33572 6.36006 7.27113 6.29688 7.23963L1.33564 4.76593C1.21195 4.70426 1.06667 4.79435 1.06667 4.9327V11.2975C1.06667 11.3682 1.10661 11.4328 1.16979 11.4643L6.13103 13.938ZM2.06071 3.60088C1.92293 3.6693 1.92283 3.86606 2.06054 3.93461L6.8508 6.31923C6.9028 6.34512 6.9639 6.3452 7.01598 6.31946L8.58184 5.54527C8.71952 5.4772 8.72023 5.28084 8.58304 5.21178L3.81633 2.81215C3.76407 2.78584 3.70251 2.78567 3.65011 2.81169L2.06071 3.60088ZM10.8527 13.8726C10.75 13.8726 10.6667 13.7892 10.6667 13.6863V12.9952C10.6667 12.8923 10.75 12.8089 10.8527 12.8089H15.814C15.9167 12.8089 16 12.8923 16 12.9952V13.6863C16 13.7892 15.9167 13.8726 15.814 13.8726H10.8527ZM10.6667 10.8679C10.6667 10.765 10.75 10.6816 10.8527 10.6816H15.814C15.9167 10.6816 16 10.765 16 10.8679V11.5589C16 11.6618 15.9167 11.7452 15.814 11.7452H10.8527C10.75 11.7452 10.6667 11.6618 10.6667 11.5589V10.8679ZM8.71938 16C8.61663 16 8.53333 15.9166 8.53333 15.8137V15.1226C8.53333 15.0197 8.61663 14.9363 8.71938 14.9363H9.41395C9.5167 14.9363 9.6 15.0197 9.6 15.1226V15.8137C9.6 15.9166 9.5167 16 9.41395 16H8.71938ZM8.71938 11.7452C8.61663 11.7452 8.53333 11.6618 8.53333 11.5589V10.8679C8.53333 10.765 8.61663 10.6816 8.71938 10.6816H9.41395C9.5167 10.6816 9.6 10.765 9.6 10.8679V11.5589C9.6 11.6618 9.5167 11.7452 9.41395 11.7452H8.71938ZM8.71938 13.8726C8.61663 13.8726 8.53333 13.7892 8.53333 13.6863V12.9952C8.53333 12.8923 8.61663 12.8089 8.71938 12.8089H9.41395C9.5167 12.8089 9.6 12.8923 9.6 12.9952V13.6863C9.6 13.7892 9.5167 13.8726 9.41395 13.8726H8.71938ZM10.8527 16C10.75 16 10.6667 15.9166 10.6667 15.8137V15.1226C10.6667 15.0197 10.75 14.9363 10.8527 14.9363H15.814C15.9167 14.9363 16 15.0197 16 15.1226V15.8137C16 15.9166 15.9167 16 15.814 16H10.8527Z" fill="#298E32"/>
</svg>
