<svg width="16" height="16" viewBox="0 0 16 16" fill="none" xmlns="http://www.w3.org/2000/svg">
<path d="M14.2781 11.503V9.13796C14.2781 8.83505 14.1577 8.54451 13.9435 8.33025C13.7293 8.11607 13.4388 7.99571 13.1359 7.99571H8.56684V5.71123H9.70909C10.0119 5.71092 10.3023 5.59049 10.5164 5.37634C10.7306 5.16219 10.8511 4.87183 10.8513 4.56898V1.14225C10.8511 0.839396 10.7306 0.549037 10.5164 0.33489C10.3023 0.120743 10.0119 0.000302396 9.70909 0H6.28236C5.97951 0.000302396 5.68915 0.120743 5.475 0.33489C5.26086 0.549037 5.14041 0.839396 5.14011 1.14225V4.56898C5.14041 4.87183 5.26086 5.16219 5.475 5.37634C5.68915 5.59049 5.97951 5.71092 6.28236 5.71123H7.42458V7.99571H2.85562C2.55268 7.99571 2.26215 8.11607 2.04793 8.33025C1.83372 8.54451 1.71337 8.83505 1.71337 9.13796V11.5036C1.175 11.6425 0.705805 11.9732 0.393737 12.4334C0.0816683 12.8935 -0.0518485 13.4518 0.0182136 14.0033C0.0882756 14.555 0.357107 15.0621 0.774313 15.4297C1.19153 15.7972 1.72847 16 2.28449 16C2.84053 16 3.37747 15.7972 3.79468 15.4297C4.21189 15.0621 4.48072 14.555 4.55078 14.0033C4.62084 13.4518 4.48732 12.8935 4.17526 12.4334C3.86319 11.9732 3.39399 11.6425 2.85562 11.5036V9.13796H7.42458V11.5036C6.88623 11.6425 6.41703 11.9732 6.10497 12.4334C5.79289 12.8935 5.65938 13.4518 5.72944 14.0033C5.79951 14.555 6.06833 15.0621 6.48554 15.4297C6.90276 15.7972 7.43971 16 7.99571 16C8.55178 16 9.08873 15.7972 9.50589 15.4297C9.92313 15.0621 10.1919 14.555 10.262 14.0033C10.3321 13.4518 10.1985 12.8935 9.88647 12.4334C9.5744 11.9732 9.10524 11.6425 8.56684 11.5036V9.13796H13.1359V11.503C12.5975 11.642 12.1283 11.9726 11.8162 12.4328C11.5041 12.8929 11.3706 13.4512 11.4407 14.0028C11.5108 14.5544 11.7796 15.0615 12.1968 15.4291C12.614 15.7967 13.1509 15.9994 13.707 15.9994C14.263 15.9994 14.7999 15.7967 15.2172 15.4291C15.6343 15.0615 15.9032 14.5544 15.9732 14.0028C16.0433 13.4512 15.9098 12.8929 15.5977 12.4328C15.2857 11.9726 14.8164 11.642 14.2781 11.503ZM6.28236 1.14225H9.70909L9.70967 4.56898H6.28236V1.14225ZM3.42674 13.707C3.42674 13.9329 3.35975 14.1537 3.23424 14.3415C3.10873 14.5294 2.93033 14.6758 2.72161 14.7623C2.51289 14.8487 2.28323 14.8713 2.06166 14.8273C1.84008 14.7832 1.63655 14.6744 1.47681 14.5146C1.31706 14.3549 1.20828 14.1513 1.1642 13.9298C1.12012 13.7082 1.14275 13.4785 1.2292 13.2698C1.31565 13.0611 1.46206 12.8827 1.6499 12.7572C1.83774 12.6317 2.05858 12.5647 2.28449 12.5647C2.58735 12.565 2.87771 12.6855 3.09185 12.8996C3.306 13.1137 3.42644 13.4041 3.42674 13.707ZM9.13796 13.707C9.13796 13.9329 9.07098 14.1537 8.94545 14.3415C8.81993 14.5294 8.6416 14.6758 8.43287 14.7623C8.22414 14.8487 7.99447 14.8713 7.77287 14.8273C7.55135 14.7832 7.34778 14.6744 7.18804 14.5146C7.02829 14.3549 6.9195 14.1513 6.87542 13.9298C6.83135 13.7082 6.85398 13.4785 6.94043 13.2698C7.02688 13.0611 7.17329 12.8827 7.36116 12.7572C7.54895 12.6317 7.76982 12.5647 7.99571 12.5647C8.29854 12.5652 8.5888 12.6857 8.80291 12.8998C9.01702 13.1139 9.13753 13.4041 9.13796 13.707ZM13.707 14.8492C13.481 14.8492 13.2602 14.7822 13.0724 14.6567C12.8845 14.5312 12.7381 14.3528 12.6516 14.1441C12.5652 13.9353 12.5426 13.7057 12.5867 13.4841C12.6308 13.2625 12.7395 13.059 12.8993 12.8993C13.059 12.7395 13.2625 12.6307 13.4841 12.5866C13.7057 12.5425 13.9353 12.5652 14.1441 12.6516C14.3528 12.7381 14.5312 12.8845 14.6567 13.0724C14.7822 13.2602 14.8492 13.481 14.8492 13.707C14.8489 14.0098 14.7284 14.3001 14.5143 14.5143C14.3001 14.7284 14.0098 14.8489 13.707 14.8492Z" fill="#298E32"/>
</svg>
