<svg width="23" height="24" viewBox="0 0 23 24" fill="none" xmlns="http://www.w3.org/2000/svg">
<g clip-path="url(#clip0_587_670)">
<path d="M15.3714 10.2419V4.96714C15.3714 3.80135 14.9083 2.68331 14.0839 1.85897C13.2596 1.03464 12.1415 0.571533 10.9758 0.571533C9.80998 0.571533 8.69193 1.03464 7.86758 1.85897C7.04324 2.68331 6.58015 3.80135 6.58015 4.96714V10.2419M19.8912 7.90576L21.3716 21.9717C21.4537 22.7512 20.8442 23.4287 20.06 23.4287H1.89151C1.70655 23.4288 1.52362 23.3902 1.35459 23.3151C1.18558 23.2399 1.03425 23.1301 0.910434 22.9927C0.786623 22.8553 0.693103 22.6934 0.635949 22.5175C0.578794 22.3416 0.559285 22.1556 0.578686 21.9717L2.0603 7.90576C2.09447 7.5817 2.24741 7.28182 2.4896 7.06388C2.7318 6.84588 3.04611 6.72531 3.37195 6.72536H18.5796C19.2547 6.72536 19.8209 7.23525 19.8912 7.90576ZM7.0197 10.2419C7.0197 10.3584 6.97341 10.4702 6.89095 10.5527C6.80855 10.6351 6.69673 10.6814 6.58015 10.6814C6.46358 10.6814 6.35175 10.6351 6.26935 10.5527C6.1869 10.4702 6.14061 10.3584 6.14061 10.2419C6.14061 10.1253 6.1869 10.0135 6.26935 9.93102C6.35175 9.84862 6.46358 9.80228 6.58015 9.80228C6.69673 9.80228 6.80855 9.84862 6.89095 9.93102C6.97341 10.0135 7.0197 10.1253 7.0197 10.2419ZM15.8109 10.2419C15.8109 10.3584 15.7646 10.4702 15.6822 10.5527C15.5998 10.6351 15.4879 10.6814 15.3714 10.6814C15.2548 10.6814 15.143 10.6351 15.0606 10.5527C14.9781 10.4702 14.9318 10.3584 14.9318 10.2419C14.9318 10.1253 14.9781 10.0135 15.0606 9.93102C15.143 9.84862 15.2548 9.80228 15.3714 9.80228C15.4879 9.80228 15.5998 9.84862 15.6822 9.93102C15.7646 10.0135 15.8109 10.1253 15.8109 10.2419Z" stroke="#298E32" stroke-width="1.5" stroke-linecap="round" stroke-linejoin="round"/>
<path d="M13.4677 12.2886H12.5059H12.4859H12.3587C10.8879 12.2886 10.1528 12.9231 10.1528 14.1977V14.9136H9.051C8.90088 14.9136 8.77905 15.0365 8.77905 15.1887V16.3374C8.77905 16.4896 8.90088 16.6131 9.051 16.6131H10.1528V18.3303C10.1528 18.3303 10.1564 19.7614 8.89665 20.3869C8.89665 20.3869 11.7406 21.2017 11.7406 18.3303V16.6131H12.7905C13.1644 16.6131 13.4677 16.3056 13.4677 15.9266V15.1887C13.4677 15.0365 13.3459 14.913 13.1957 14.913H11.7406V14.622C11.7406 14.2033 11.9456 13.9935 12.5071 13.9935H13.0154C13.2651 13.9935 13.4677 13.7881 13.4677 13.535V13.1487V12.2886Z" fill="#298E32"/>
</g>
<defs>
<clipPath id="clip0_587_670">
<rect width="22.2857" height="24" fill="white"/>
</clipPath>
</defs>
</svg>
