<svg width="16" height="16" viewBox="0 0 16 16" fill="none" xmlns="http://www.w3.org/2000/svg">
<path d="M4.70521 16C4.2739 16 3.90454 15.8507 3.59713 15.552C3.28972 15.2533 3.13628 14.8947 3.13681 14.4762C3.13681 14.0571 3.29051 13.6983 3.59792 13.3996C3.90532 13.101 4.27442 12.9519 4.70521 12.9524C5.13652 12.9524 5.50588 13.1017 5.81329 13.4004C6.12069 13.699 6.27413 14.0577 6.27361 14.4762C6.27361 14.8952 6.11991 15.2541 5.8125 15.5528C5.50509 15.8514 5.136 16.0005 4.70521 16ZM12.5472 16C12.1159 16 11.7466 15.8507 11.4391 15.552C11.1317 15.2533 10.9783 14.8947 10.9788 14.4762C10.9788 14.0571 11.1325 13.6983 11.4399 13.3996C11.7473 13.101 12.1164 12.9519 12.5472 12.9524C12.9785 12.9524 13.3479 13.1017 13.6553 13.4004C13.9627 13.699 14.1161 14.0577 14.1156 14.4762C14.1156 14.8952 13.9619 15.2541 13.6545 15.5528C13.3471 15.8514 12.978 16.0005 12.5472 16ZM8.62621 6.47619C8.40403 6.47619 8.21765 6.40305 8.06708 6.25676C7.91651 6.11048 7.84149 5.92965 7.84201 5.71429C7.84201 5.49841 7.9173 5.31733 8.06786 5.17105C8.21843 5.02476 8.40455 4.95187 8.62621 4.95238C8.84841 4.95238 9.03478 5.02552 9.18535 5.17181C9.33592 5.3181 9.41094 5.49892 9.41042 5.71429C9.41042 5.93016 9.33513 6.11124 9.18457 6.25752C9.034 6.40381 8.84788 6.4767 8.62621 6.47619ZM8.1802 3.80952C7.99342 3.80952 7.84201 3.66333 7.84201 3.48299V0.326531C7.84201 0.146193 7.99343 0 8.1802 0H9.07223C9.25901 0 9.41042 0.146193 9.41042 0.326531V3.48299C9.41042 3.66333 9.25901 3.80952 9.07223 3.80952H8.1802ZM2.62924 12.1905C2.3723 12.1905 2.20922 11.9247 2.33261 11.7071L4.30894 8.22184C4.36084 8.13032 4.36431 8.02036 4.31828 7.92595L1.6598 2.47317C1.60401 2.35875 1.4848 2.28571 1.35382 2.28571H0.338187C0.151411 2.28571 0 2.13952 0 1.95918V1.08844C0 0.908097 0.151411 0.761905 0.338187 0.761905H2.35339C2.48452 0.761905 2.60383 0.835097 2.65954 0.949714L5.80983 7.43124C5.86554 7.54586 5.98485 7.61905 6.11598 7.61905H11.2102C11.3335 7.61905 11.4471 7.55423 11.5065 7.44991L14.3525 2.45485C14.412 2.35053 14.5255 2.28571 14.6488 2.28571H15.6613C15.9185 2.28571 16.0816 2.55185 15.9577 2.76946L12.4279 8.97354C12.3685 9.07797 12.2549 9.14286 12.1315 9.14286H5.76839C5.64474 9.14286 5.53094 9.20802 5.47164 9.31278L4.97871 10.1835C4.85553 10.4011 5.01863 10.6667 5.27546 10.6667H13.7774C13.9642 10.6667 14.1156 10.8129 14.1156 10.9932V11.8639C14.1156 12.0443 13.9642 12.1905 13.7774 12.1905H2.62924Z" fill="#298E32"/>
</svg>
