<svg width="14" height="14" viewBox="0 0 14 14" fill="none" xmlns="http://www.w3.org/2000/svg">
<path d="M6.22723 -0.000274644C7.39656 -0.00035316 8.54229 0.328776 9.5333 0.949445C10.5243 1.57011 11.3206 2.45725 11.8309 3.50932C12.3413 4.56139 12.5451 5.7359 12.4192 6.89842C12.2932 8.06094 11.8425 9.16451 11.1186 10.0828L13.7943 12.7586C13.9278 12.8968 14.0016 13.0818 14 13.2739C13.9983 13.466 13.9212 13.6498 13.7854 13.7857C13.6496 13.9215 13.4658 13.9986 13.2737 14.0002C13.0816 14.0019 12.8965 13.928 12.7583 13.7946L10.0826 11.1188C9.30261 11.7335 8.38694 12.1528 7.41199 12.3416C6.43703 12.5305 5.43105 12.4834 4.47797 12.2044C3.5249 11.9254 2.65237 11.4225 1.93318 10.7377C1.21399 10.0528 0.668997 9.20597 0.343666 8.26769C0.0183362 7.32941 -0.0778956 6.32694 0.0629995 5.34391C0.203895 4.36088 0.577831 3.42579 1.15361 2.61667C1.72939 1.80755 2.49032 1.14785 3.37291 0.692614C4.2555 0.23738 5.23416 -0.00019004 6.22723 -0.000274644ZM6.22723 1.46508C4.96416 1.46508 3.75283 1.96683 2.8597 2.85996C1.96658 3.75308 1.46483 4.96442 1.46483 6.22749C1.46483 7.49056 1.96658 8.70189 2.8597 9.59502C3.75283 10.4881 4.96416 10.9899 6.22723 10.9899C7.4903 10.9899 8.70164 10.4881 9.59476 9.59502C10.4879 8.70189 10.9896 7.49056 10.9896 6.22749C10.9896 4.96442 10.4879 3.75308 9.59476 2.85996C8.70164 1.96683 7.4903 1.46508 6.22723 1.46508Z" fill="#298E32"/>
</svg>
