<svg width="88" height="23" viewBox="0 0 88 23" fill="none" xmlns="http://www.w3.org/2000/svg">
<path d="M21.4402 5.9469C22.5701 5.9469 23.5974 6.06142 24.5204 6.28877C25.4435 6.51611 26.2315 6.86994 26.8845 7.34855C27.5357 7.82717 28.0417 8.43569 28.4006 9.17412C28.7596 9.91256 28.9391 10.7826 28.9391 11.7826V19.1498C28.9391 19.7156 28.7921 20.1651 28.4998 20.5019C28.2058 20.8386 27.8536 21.1258 27.44 21.3651C26.7665 21.7788 25.9409 22.0933 24.9632 22.3104C23.9854 22.5275 22.8761 22.6368 21.6385 22.6368C19.3993 22.6368 17.6181 22.2078 16.2934 21.3497C14.967 20.4916 14.3055 19.1823 14.3055 17.4217C14.3055 15.9226 14.7499 14.7807 15.6422 13.9996C16.5327 13.2167 17.9019 12.7278 19.7497 12.533L24.0846 12.0766V11.7176C24.0846 11.0219 23.8025 10.5108 23.2367 10.1861C22.6709 9.85957 21.8556 9.69718 20.7924 9.69718C19.9668 9.69718 19.1566 9.79461 18.3634 9.99119C17.5703 10.1861 16.8592 10.4151 16.2285 10.6749C15.9669 10.5006 15.7447 10.2356 15.5601 9.87666C15.3755 9.5177 15.2832 9.1331 15.2832 8.71944C15.2832 7.76392 15.7823 7.07848 16.7823 6.66653C17.413 6.42722 18.1463 6.24774 18.9822 6.12809C19.8146 6.00673 20.6351 5.9469 21.4402 5.9469ZM21.6351 18.9515C22.1137 18.9515 22.5855 18.902 23.0538 18.8045C23.5205 18.7071 23.8743 18.5823 24.1136 18.4302V15.432L21.4402 15.6593C20.7445 15.7243 20.1856 15.8833 19.7617 16.1328C19.3377 16.3824 19.1258 16.7584 19.1258 17.2576C19.1258 17.7789 19.3206 18.1926 19.7121 18.4968C20.1035 18.8011 20.7445 18.9515 21.6351 18.9515Z" fill="#298E32"/>
<path d="M44.5829 17.5171C44.5829 19.1256 43.9846 20.3803 42.7898 21.2828C41.5949 22.1836 39.8343 22.6349 37.5096 22.6349C36.5968 22.6349 35.7661 22.5699 35.0157 22.44C34.2653 22.3101 33.6192 22.1136 33.0756 21.8537C32.532 21.5922 32.1081 21.2674 31.8039 20.876C31.4996 20.4846 31.3475 20.0282 31.3475 19.5068C31.3475 19.0282 31.4449 18.6214 31.6415 18.2846C31.8363 17.9479 32.0859 17.671 32.3919 17.4539C33.0226 17.8231 33.7388 18.1496 34.5439 18.4316C35.3473 18.7137 36.2823 18.8556 37.3472 18.8556C38.8908 18.8556 39.6617 18.4214 39.6617 17.5513C39.6617 17.1821 39.5266 16.9001 39.2549 16.7035C38.9831 16.5086 38.5216 16.3343 37.8686 16.1822L36.5644 15.8882C34.7815 15.5189 33.4568 14.948 32.5867 14.1771C31.7167 13.4062 31.2825 12.3242 31.2825 10.9345C31.2825 9.39097 31.9064 8.1688 33.1577 7.26798C34.4072 6.36716 36.0858 5.91589 38.1934 5.91589C38.9762 5.91589 39.7147 5.97572 40.4104 6.09537C41.1061 6.21503 41.7026 6.39451 42.2035 6.63381C42.7026 6.87312 43.0992 7.17225 43.3932 7.52951C43.6872 7.88847 43.8325 8.30725 43.8325 8.78416C43.8325 9.22004 43.7453 9.60464 43.5709 9.94138C43.3966 10.2781 43.1692 10.555 42.8872 10.7721C42.7128 10.6644 42.4582 10.5448 42.1214 10.4132C41.7847 10.2832 41.4206 10.1636 41.0292 10.0542C40.6377 9.94651 40.2241 9.85933 39.7899 9.79267C39.3557 9.72771 38.954 9.69523 38.5848 9.69523C37.8242 9.69523 37.2327 9.79779 36.8088 10.0046C36.3849 10.2115 36.1729 10.5208 36.1729 10.9345C36.1729 11.2388 36.2926 11.4781 36.5319 11.6507C36.7712 11.8251 37.2054 11.9875 37.8361 12.1396L39.0754 12.4336C41.0531 12.8678 42.465 13.4985 43.3128 14.3241C44.1589 15.1497 44.5829 16.2146 44.5829 17.5171Z" fill="#298E32"/>
<path d="M50.8083 22.2607C50.4168 22.3154 49.9827 22.3427 49.504 22.3427C48.5263 22.3427 47.8203 22.1855 47.3862 21.8692C46.9503 21.5547 46.7332 20.9411 46.7332 20.0283V0.893981C46.9725 0.829026 47.287 0.764071 47.6785 0.699117C48.0699 0.634162 48.5041 0.601685 48.9827 0.601685C49.9604 0.601685 50.6613 0.764071 51.0852 1.09055C51.5091 1.41704 51.721 2.03582 51.721 2.9486V6.69717C52.1774 6.48009 52.6937 6.30061 53.2697 6.15873C53.8458 6.01686 54.4697 5.94677 55.1431 5.94677C57.2302 5.94677 58.8644 6.47496 60.0489 7.52791C61.2335 8.58257 61.8249 10.1637 61.8249 12.2713V22.0829C61.6078 22.1479 61.3036 22.2077 60.9121 22.2624C60.5207 22.3171 60.0865 22.3444 59.6079 22.3444C58.6302 22.3444 57.9242 22.1872 57.4883 21.8709C57.0542 21.5564 56.8371 20.9428 56.8371 20.03V12.5636C56.8371 11.5859 56.5927 10.8902 56.1038 10.4765C55.6149 10.0646 54.9893 9.85773 54.2286 9.85773C53.7278 9.85773 53.2714 9.92782 52.8595 10.0697C52.4458 10.2116 52.0663 10.3791 51.7193 10.5757V22.0829C51.504 22.1461 51.1997 22.206 50.8083 22.2607Z" fill="#298E32"/>
<path d="M80.667 14.2573C80.667 15.5393 80.4721 16.6965 80.0807 17.729C79.6892 18.7614 79.1303 19.6366 78.4021 20.3528C77.6739 21.0707 76.7988 21.6246 75.7783 22.016C74.7561 22.4074 73.616 22.6023 72.3562 22.6023C71.0964 22.6023 69.9495 22.4108 68.917 22.0314C67.8846 21.6519 67.0043 21.1032 66.2761 20.3853C65.5479 19.6691 64.989 18.7939 64.5975 17.7615C64.2061 16.729 64.0112 15.5615 64.0112 14.2573C64.0112 12.9975 64.2112 11.8506 64.6146 10.8181C65.0163 9.7857 65.5804 8.91052 66.3103 8.19431C67.0385 7.47639 67.9188 6.92256 68.9512 6.53113C69.9836 6.13969 71.1186 5.94482 72.3579 5.94482C73.5972 5.94482 74.7271 6.13969 75.7475 6.53113C76.768 6.92256 77.6432 7.48152 78.3714 8.20969C79.0995 8.93787 79.6636 9.81305 80.067 10.8335C80.4653 11.8574 80.667 12.9975 80.667 14.2573ZM72.3545 9.85749C71.3323 9.85749 70.5392 10.2387 69.9751 10.9976C69.4093 11.7583 69.1273 12.8454 69.1273 14.2573C69.1273 15.7137 69.4042 16.8162 69.958 17.5666C70.5118 18.317 71.3101 18.6913 72.3545 18.6913C73.3972 18.6913 74.1972 18.3119 74.751 17.5512C75.3048 16.7906 75.5817 15.6932 75.5817 14.259C75.5817 12.8693 75.2997 11.7873 74.7339 11.0164C74.1698 10.2438 73.3767 9.85749 72.3545 9.85749Z" fill="#298E32"/>
<path d="M85.7522 22.3427C84.7745 22.3427 84.0737 22.1855 83.6497 21.8692C83.2258 21.5547 83.0139 20.9411 83.0139 20.0283V0.893981C83.2309 0.829026 83.5403 0.764071 83.9437 0.699117C84.3454 0.634162 84.7847 0.601685 85.2633 0.601685C86.2189 0.601685 86.9146 0.764071 87.3487 1.09055C87.7829 1.41704 88 2.03582 88 2.9486V22.0829C87.7607 22.1479 87.4462 22.2077 87.0547 22.2624C86.665 22.3154 86.2291 22.3427 85.7522 22.3427Z" fill="#298E32"/>
<path d="M13.2901 0H10.5637H10.5073H10.1466C5.97754 0 3.89387 1.77429 3.89387 5.33825V7.33988H0.77091C0.345286 7.33988 0 7.68346 0 8.10909V11.3209C0 11.7466 0.345286 12.0918 0.77091 12.0918H3.89387V16.8934C3.89387 16.8934 3.90412 20.8949 0.33332 22.6436C0.33332 22.6436 8.39454 24.9221 8.39454 16.8934V12.0918H11.3705C12.4303 12.0918 13.2901 11.232 13.2901 10.1723V8.10909C13.2901 7.68346 12.9448 7.33818 12.5192 7.33818H8.39454V6.52453C8.39454 5.35364 8.97572 4.76734 10.5671 4.76734H12.0081C12.7157 4.76734 13.2901 4.193 13.2901 3.48533V2.40503V0Z" fill="#298E32"/>
</svg>
