<svg width="17" height="17" viewBox="0 0 17 17" fill="none" xmlns="http://www.w3.org/2000/svg">
<path d="M8.5 8.5H7.96667C7.96654 8.57009 7.98023 8.63951 8.00695 8.7043C8.03368 8.76909 8.07291 8.82798 8.1224 8.8776L8.5 8.5ZM8.5 15.4333C6.66117 15.4333 4.89765 14.7029 3.59739 13.4026C2.29714 12.1024 1.56667 10.3388 1.56667 8.5H0.5C0.5 10.6217 1.34285 12.6566 2.84315 14.1569C4.34344 15.6571 6.37827 16.5 8.5 16.5V15.4333ZM15.4333 8.5C15.4333 9.4105 15.254 10.3121 14.9056 11.1533C14.5571 11.9945 14.0464 12.7588 13.4026 13.4026C12.7588 14.0464 11.9945 14.5571 11.1533 14.9056C10.3121 15.254 9.4105 15.4333 8.5 15.4333V16.5C10.6217 16.5 12.6566 15.6571 14.1569 14.1569C15.6571 12.6566 16.5 10.6217 16.5 8.5H15.4333ZM8.5 1.56667C9.4105 1.56667 10.3121 1.746 11.1533 2.09444C11.9945 2.44287 12.7588 2.95357 13.4026 3.59739C14.0464 4.24121 14.5571 5.00554 14.9056 5.84673C15.254 6.68792 15.4333 7.5895 15.4333 8.5H16.5C16.5 6.37827 15.6571 4.34344 14.1569 2.84315C12.6566 1.34285 10.6217 0.5 8.5 0.5V1.56667ZM8.5 0.5C6.37827 0.5 4.34344 1.34285 2.84315 2.84315C1.34285 4.34344 0.5 6.37827 0.5 8.5H1.56667C1.56667 6.66117 2.29714 4.89765 3.59739 3.59739C4.89765 2.29714 6.66117 1.56667 8.5 1.56667V0.5ZM7.96667 3.7V8.5H9.03333V3.7H7.96667ZM8.1224 8.8776L11.3224 12.0776L12.0776 11.3224L8.8776 8.1224L8.1224 8.8776Z" fill="#298E32"/>
</svg>
