<svg width="20" height="14" viewBox="0 0 20 14" fill="none" xmlns="http://www.w3.org/2000/svg">
<path fill-rule="evenodd" clip-rule="evenodd" d="M4.52336 6.03738H9.37072H10.9907H11.1838V11.271C11.1838 11.7196 11.2087 12.081 11.2586 12.3551C11.3209 12.6168 11.4019 12.8287 11.5016 12.9907C11.6012 13.1402 11.7134 13.2773 11.838 13.4019C12.0374 13.5888 12.2866 13.7383 12.5857 13.8505C12.8847 13.9502 13.2648 14 13.7259 14C14.3115 14 14.8847 13.8816 15.4455 13.6449C16.0062 13.4081 16.5109 13.0841 16.9595 12.6729C17.4081 12.2492 17.7632 11.7757 18.0249 11.2523C18.2991 10.7165 18.4361 10.162 18.4361 9.58879C18.4361 8.85358 18.2243 8.32399 17.8006 8C17.3894 7.66355 16.8536 7.49533 16.1931 7.49533C15.9439 7.49533 15.6947 7.51402 15.4455 7.5514C15.2087 7.57632 14.9844 7.61994 14.7726 7.68224L14.9595 8.95327C15.2461 8.8785 15.5576 8.84112 15.8941 8.84112C16.2679 8.84112 16.5358 8.92212 16.6978 9.08411C16.8723 9.24611 16.9595 9.47664 16.9595 9.7757C16.9595 10.1495 16.866 10.5171 16.6791 10.8785C16.4922 11.2274 16.243 11.5389 15.9315 11.8131C15.6324 12.0872 15.2897 12.3053 14.9034 12.4673C14.5296 12.6293 14.1558 12.7103 13.7819 12.7103C13.3209 12.7103 13.0093 12.6044 12.8474 12.3925C12.6978 12.1807 12.6231 11.7819 12.6231 11.1963V6.03738H19.0903V4.69159H12.6231V3.27103C12.6231 2.53583 12.5607 1.96885 12.4361 1.57009C12.324 1.15888 12.1558 0.834891 11.9315 0.598131C11.7445 0.398754 11.514 0.249221 11.2399 0.149532C10.9782 0.049844 10.6667 0 10.3053 0C9.919 0 9.54517 0.0436135 9.1838 0.130841C8.83489 0.205607 8.47352 0.323987 8.09969 0.485981L8.60436 1.64486C8.76635 1.58255 8.9595 1.52025 9.1838 1.45794C9.42056 1.38318 9.65732 1.34579 9.89408 1.34579C10.2679 1.34579 10.5483 1.42679 10.7352 1.58878C10.9221 1.73832 11.0405 1.96262 11.0903 2.26168C11.1526 2.54829 11.1838 2.90966 11.1838 3.34579V4.69159H10.9907H9.37072H4.52336V3.27103C4.52336 2.53583 4.46106 1.96885 4.33645 1.57009C4.2243 1.15888 4.05607 0.834891 3.83178 0.598131C3.64486 0.398754 3.41433 0.249221 3.14019 0.149532C2.8785 0.049844 2.56698 0 2.20561 0C1.81931 0 1.44548 0.0436135 1.08411 0.130841C0.735202 0.205607 0.373832 0.323987 0 0.485981L0.504673 1.64486C0.666667 1.58255 0.859813 1.52025 1.08411 1.45794C1.32087 1.38318 1.55763 1.34579 1.79439 1.34579C2.16822 1.34579 2.4486 1.42679 2.63551 1.58878C2.82243 1.73832 2.94081 1.96262 2.99065 2.26168C3.05296 2.54829 3.08411 2.90966 3.08411 3.34579V4.69159H1.27103V6.03738H3.08411V11.271C3.08411 11.7196 3.10903 12.081 3.15888 12.3551C3.22118 12.6168 3.30218 12.8287 3.40187 12.9907C3.50156 13.1402 3.61371 13.2773 3.73832 13.4019C3.93769 13.5888 4.18692 13.7383 4.48598 13.8505C4.78505 13.9502 5.16511 14 5.62617 14C6.21184 14 6.78505 13.8816 7.34579 13.6449C7.90654 13.4081 8.41121 13.0841 8.85981 12.6729C9.30841 12.2492 9.66355 11.7757 9.92523 11.2523C10.1994 10.7165 10.3364 10.162 10.3364 9.58879C10.3364 8.85358 10.1246 8.32399 9.70093 8C9.28972 7.66355 8.75389 7.49533 8.09346 7.49533C7.84424 7.49533 7.59502 7.51402 7.34579 7.5514C7.10903 7.57632 6.88474 7.61994 6.6729 7.68224L6.85981 8.95327C7.14642 8.8785 7.45794 8.84112 7.79439 8.84112C8.16822 8.84112 8.43614 8.92212 8.59813 9.08411C8.77258 9.24611 8.85981 9.47664 8.85981 9.7757C8.85981 10.1495 8.76635 10.5171 8.57944 10.8785C8.39252 11.2274 8.1433 11.5389 7.83178 11.8131C7.53271 12.0872 7.19003 12.3053 6.80374 12.4673C6.42991 12.6293 6.05608 12.7103 5.68224 12.7103C5.22118 12.7103 4.90966 12.6044 4.74766 12.3925C4.59813 12.1807 4.52336 11.7819 4.52336 11.1963V6.03738Z" fill="#298E32"/>
</svg>
