<svg width="13" height="14" viewBox="0 0 13 14" fill="none" xmlns="http://www.w3.org/2000/svg">
<path fill-rule="evenodd" clip-rule="evenodd" d="M7.0039 10.7891V10.7895C7.00357 11.4769 7.20939 12.0395 7.6376 12.5213C8.0663 13.0037 8.57263 13.2409 9.19566 13.2409H9.19601C9.8184 13.2413 10.3244 13.0044 10.7531 12.522C11.1813 12.0402 11.3874 11.4772 11.3874 10.7891V10.7887C11.3878 10.1012 11.1819 9.53862 10.7537 9.05683C10.325 8.57448 9.8187 8.33724 9.19566 8.33724H9.19532C8.57293 8.33687 8.06692 8.57378 7.63823 9.05611C7.21001 9.53792 7.0039 10.1009 7.0039 10.7891ZM3.41188 5.392H8.00343L5.70765 1.16521L3.41188 5.392ZM6.34184 10.7891C6.34141 11.6805 6.61876 12.4385 7.17389 13.0631C7.72901 13.6877 8.40293 14 9.19566 14C9.98797 14.0005 10.6617 13.6884 11.2168 13.0638C11.7719 12.4393 12.0495 11.681 12.0495 10.7891C12.0499 9.89763 11.7726 9.13962 11.2174 8.51504C10.6623 7.89045 9.98839 7.57816 9.19566 7.57816C8.40336 7.57769 7.72964 7.88974 7.17452 8.51432C6.6194 9.13891 6.34184 9.89716 6.34184 10.7891ZM0.66206 12.8841V8.69401H4.41141V12.8841H0.66206ZM5.48285 0.143126L2.47174 5.68695C2.36189 5.8892 2.48873 6.15109 2.69654 6.15109H8.71877C8.92658 6.15109 9.05342 5.8892 8.94357 5.68695L5.93245 0.143126C5.8288 -0.0477088 5.58651 -0.0477085 5.48285 0.143126ZM0 13.3396V8.23856C0 8.07087 0.118566 7.93493 0.264824 7.93493H4.80865C4.9549 7.93493 5.07347 8.07087 5.07347 8.23856V13.3396C5.07347 13.5073 4.9549 13.6432 4.80865 13.6432H0.264824C0.118566 13.6432 0 13.5073 0 13.3396Z" fill="#298E32"/>
</svg>
