<svg width="11" height="14" viewBox="0 0 11 14" fill="none" xmlns="http://www.w3.org/2000/svg">
<path d="M10.9907 4.69159V6.03738H4.52336V11.1963C4.52336 11.7819 4.59813 12.1807 4.74766 12.3925C4.90966 12.6044 5.22118 12.7103 5.68224 12.7103C6.05607 12.7103 6.42991 12.6293 6.80374 12.4673C7.19003 12.3053 7.53271 12.0872 7.83178 11.8131C8.1433 11.5389 8.39252 11.2274 8.57944 10.8785C8.76635 10.5171 8.85981 10.1495 8.85981 9.7757C8.85981 9.47663 8.77258 9.24611 8.59813 9.08411C8.43614 8.92212 8.16822 8.84112 7.79439 8.84112C7.45794 8.84112 7.14642 8.8785 6.85981 8.95327L6.6729 7.68224C6.88474 7.61994 7.10903 7.57632 7.34579 7.5514C7.59502 7.51402 7.84424 7.49533 8.09346 7.49533C8.75389 7.49533 9.28972 7.66355 9.70093 8C10.1246 8.32399 10.3364 8.85358 10.3364 9.58878C10.3364 10.162 10.1994 10.7165 9.92523 11.2523C9.66355 11.7757 9.30841 12.2492 8.85981 12.6729C8.41121 13.0841 7.90654 13.4081 7.34579 13.6449C6.78505 13.8816 6.21184 14 5.62617 14C5.16511 14 4.78505 13.9502 4.48598 13.8505C4.18692 13.7383 3.93769 13.5888 3.73832 13.4019C3.61371 13.2773 3.50156 13.1402 3.40187 12.9907C3.30218 12.8287 3.22118 12.6168 3.15888 12.3551C3.10903 12.081 3.08411 11.7196 3.08411 11.271V6.03738H1.27103V4.69159H10.9907ZM2.20561 0C2.56698 0 2.8785 0.049844 3.14019 0.149532C3.41433 0.249221 3.64486 0.398753 3.83178 0.598131C4.05607 0.834891 4.2243 1.15888 4.33645 1.57009C4.46106 1.96885 4.52336 2.53583 4.52336 3.27103V4.84112H3.08411V3.34579C3.08411 2.90966 3.05296 2.54829 2.99065 2.26168C2.94081 1.96262 2.82243 1.73832 2.63551 1.58878C2.4486 1.42679 2.16822 1.34579 1.79439 1.34579C1.55763 1.34579 1.32087 1.38318 1.08411 1.45794C0.859813 1.52025 0.666667 1.58255 0.504673 1.64486L0 0.485981C0.373832 0.323987 0.735202 0.205607 1.08411 0.130841C1.44548 0.0436135 1.81931 0 2.20561 0Z" fill="#298E32"/>
</svg>
