<svg width="16" height="17" viewBox="0 0 16 17" fill="none" xmlns="http://www.w3.org/2000/svg">
<path fill-rule="evenodd" clip-rule="evenodd" d="M8.09306 13.7458C10.9393 13.7458 13.2466 11.4385 13.2466 8.59232C13.2466 5.74612 10.9393 3.43882 8.09306 3.43882C5.24686 3.43882 2.93955 5.74612 2.93955 8.59232C2.93955 11.4385 5.24686 13.7458 8.09306 13.7458ZM8.09306 14.7254C11.4803 14.7254 14.2262 11.9795 14.2262 8.59232C14.2262 5.20511 11.4803 2.45923 8.09306 2.45923C4.70584 2.45923 1.95996 5.20511 1.95996 8.59232C1.95996 11.9795 4.70584 14.7254 8.09306 14.7254Z" fill="#298E32"/>
<path fill-rule="evenodd" clip-rule="evenodd" d="M0 8.80732C0 8.54742 0.21069 8.33673 0.470588 8.33673H15.5294C15.7893 8.33673 16 8.54742 16 8.80732C16 9.06722 15.7893 9.27791 15.5294 9.27791H0.470588C0.21069 9.27791 0 9.06722 0 8.80732Z" fill="#298E32"/>
<path fill-rule="evenodd" clip-rule="evenodd" d="M8.0194 0.5C8.2793 0.5 8.48999 0.71069 8.48999 0.970588L8.48999 16.0294C8.48999 16.2893 8.2793 16.5 8.0194 16.5C7.7595 16.5 7.54881 16.2893 7.54881 16.0294L7.54881 0.970588C7.54881 0.710689 7.7595 0.5 8.0194 0.5Z" fill="#298E32"/>
</svg>
